<mxfile host="app.diagrams.net" modified="2020-11-29T12:26:49.577Z" agent="5.0 (Windows NT 10.0; Win64; x64) AppleWebKit/537.36 (KHTML, like Gecko) Chrome/87.0.4280.66 Safari/537.36" etag="HRgTEFPjXQrE0REIumME" version="13.8.2" type="github">
  <diagram id="po3OlhBAMP63pEp16HJ7" name="Page-1">
    <mxGraphModel dx="1102" dy="450" grid="1" gridSize="10" guides="1" tooltips="1" connect="1" arrows="1" fold="1" page="1" pageScale="1" pageWidth="827" pageHeight="1169" math="0" shadow="0">
      <root>
        <mxCell id="0" />
        <mxCell id="1" parent="0" />
        <mxCell id="6vAwja2DdDHT2TAZFSRR-30" value="" style="rounded=0;whiteSpace=wrap;html=1;fillColor=#61FF05;" vertex="1" parent="1">
          <mxGeometry x="340" y="40" width="220" height="40" as="geometry" />
        </mxCell>
        <mxCell id="6vAwja2DdDHT2TAZFSRR-25" value="" style="rounded=0;whiteSpace=wrap;html=1;fillColor=#FF2212;" vertex="1" parent="1">
          <mxGeometry x="240" y="40" width="100" height="40" as="geometry" />
        </mxCell>
        <mxCell id="6vAwja2DdDHT2TAZFSRR-2" value="" style="endArrow=none;html=1;fillColor=#FF2212;" edge="1" parent="1" source="6vAwja2DdDHT2TAZFSRR-25">
          <mxGeometry width="50" height="50" relative="1" as="geometry">
            <mxPoint x="300" y="80" as="sourcePoint" />
            <mxPoint x="300" y="40" as="targetPoint" />
          </mxGeometry>
        </mxCell>
        <mxCell id="6vAwja2DdDHT2TAZFSRR-4" value="" style="endArrow=none;html=1;fillColor=#FF2212;" edge="1" parent="1">
          <mxGeometry width="50" height="50" relative="1" as="geometry">
            <mxPoint x="260" y="80" as="sourcePoint" />
            <mxPoint x="260" y="40" as="targetPoint" />
          </mxGeometry>
        </mxCell>
        <mxCell id="6vAwja2DdDHT2TAZFSRR-6" value="" style="endArrow=none;html=1;fillColor=#03FF3D;" edge="1" parent="1">
          <mxGeometry width="50" height="50" relative="1" as="geometry">
            <mxPoint x="520" y="80" as="sourcePoint" />
            <mxPoint x="520" y="40" as="targetPoint" />
          </mxGeometry>
        </mxCell>
        <mxCell id="6vAwja2DdDHT2TAZFSRR-7" value="" style="endArrow=none;html=1;fillColor=#03FF3D;" edge="1" parent="1">
          <mxGeometry width="50" height="50" relative="1" as="geometry">
            <mxPoint x="540" y="80" as="sourcePoint" />
            <mxPoint x="540" y="40" as="targetPoint" />
            <Array as="points">
              <mxPoint x="540" y="60" />
            </Array>
          </mxGeometry>
        </mxCell>
        <mxCell id="6vAwja2DdDHT2TAZFSRR-8" value="" style="endArrow=none;html=1;fillColor=#FF2212;" edge="1" parent="1">
          <mxGeometry width="50" height="50" relative="1" as="geometry">
            <mxPoint x="280" y="80" as="sourcePoint" />
            <mxPoint x="280" y="40" as="targetPoint" />
          </mxGeometry>
        </mxCell>
        <mxCell id="6vAwja2DdDHT2TAZFSRR-9" value="" style="endArrow=none;html=1;fillColor=#03FF3D;" edge="1" parent="1" source="6vAwja2DdDHT2TAZFSRR-30">
          <mxGeometry width="50" height="50" relative="1" as="geometry">
            <mxPoint x="400" y="80" as="sourcePoint" />
            <mxPoint x="400" y="40" as="targetPoint" />
          </mxGeometry>
        </mxCell>
        <mxCell id="6vAwja2DdDHT2TAZFSRR-10" value="" style="endArrow=none;html=1;fillColor=#03FF3D;" edge="1" parent="1">
          <mxGeometry width="50" height="50" relative="1" as="geometry">
            <mxPoint x="440" y="80" as="sourcePoint" />
            <mxPoint x="440" y="40" as="targetPoint" />
          </mxGeometry>
        </mxCell>
        <mxCell id="6vAwja2DdDHT2TAZFSRR-11" value="" style="endArrow=none;html=1;fillColor=#03FF3D;" edge="1" parent="1">
          <mxGeometry width="50" height="50" relative="1" as="geometry">
            <mxPoint x="480" y="80" as="sourcePoint" />
            <mxPoint x="480" y="40" as="targetPoint" />
          </mxGeometry>
        </mxCell>
        <mxCell id="6vAwja2DdDHT2TAZFSRR-13" value="" style="endArrow=none;html=1;fillColor=#FF2212;" edge="1" parent="1">
          <mxGeometry width="50" height="50" relative="1" as="geometry">
            <mxPoint x="300" y="80" as="sourcePoint" />
            <mxPoint x="300" y="40" as="targetPoint" />
          </mxGeometry>
        </mxCell>
        <mxCell id="6vAwja2DdDHT2TAZFSRR-14" value="" style="endArrow=none;html=1;fillColor=#03FF3D;" edge="1" parent="1">
          <mxGeometry width="50" height="50" relative="1" as="geometry">
            <mxPoint x="360" y="80" as="sourcePoint" />
            <mxPoint x="360" y="40" as="targetPoint" />
          </mxGeometry>
        </mxCell>
        <mxCell id="6vAwja2DdDHT2TAZFSRR-16" value="" style="endArrow=none;html=1;fillColor=#03FF3D;" edge="1" parent="1">
          <mxGeometry width="50" height="50" relative="1" as="geometry">
            <mxPoint x="420" y="80" as="sourcePoint" />
            <mxPoint x="420" y="40" as="targetPoint" />
          </mxGeometry>
        </mxCell>
        <mxCell id="6vAwja2DdDHT2TAZFSRR-19" value="" style="endArrow=none;html=1;fillColor=#03FF3D;" edge="1" parent="1">
          <mxGeometry width="50" height="50" relative="1" as="geometry">
            <mxPoint x="420" y="40" as="sourcePoint" />
            <mxPoint x="420" y="40" as="targetPoint" />
          </mxGeometry>
        </mxCell>
        <mxCell id="6vAwja2DdDHT2TAZFSRR-20" value="" style="endArrow=none;html=1;fillColor=#03FF3D;" edge="1" parent="1">
          <mxGeometry width="50" height="50" relative="1" as="geometry">
            <mxPoint x="460" y="80" as="sourcePoint" />
            <mxPoint x="460" y="40" as="targetPoint" />
          </mxGeometry>
        </mxCell>
        <mxCell id="6vAwja2DdDHT2TAZFSRR-21" value="" style="endArrow=none;html=1;fillColor=#03FF3D;" edge="1" parent="1">
          <mxGeometry width="50" height="50" relative="1" as="geometry">
            <mxPoint x="500" y="80" as="sourcePoint" />
            <mxPoint x="500" y="40" as="targetPoint" />
          </mxGeometry>
        </mxCell>
        <mxCell id="6vAwja2DdDHT2TAZFSRR-22" value="" style="endArrow=none;html=1;fillColor=#FF2212;" edge="1" parent="1">
          <mxGeometry width="50" height="50" relative="1" as="geometry">
            <mxPoint x="340" y="80" as="sourcePoint" />
            <mxPoint x="340" y="40" as="targetPoint" />
          </mxGeometry>
        </mxCell>
        <mxCell id="6vAwja2DdDHT2TAZFSRR-23" value="" style="endArrow=none;html=1;fillColor=#03FF3D;" edge="1" parent="1">
          <mxGeometry width="50" height="50" relative="1" as="geometry">
            <mxPoint x="380" y="80" as="sourcePoint" />
            <mxPoint x="380" y="40" as="targetPoint" />
          </mxGeometry>
        </mxCell>
        <mxCell id="6vAwja2DdDHT2TAZFSRR-24" value="" style="endArrow=none;html=1;fillColor=#03FF3D;" edge="1" parent="1">
          <mxGeometry width="50" height="50" relative="1" as="geometry">
            <mxPoint x="650" y="309" as="sourcePoint" />
            <mxPoint x="650" y="309" as="targetPoint" />
          </mxGeometry>
        </mxCell>
        <mxCell id="6vAwja2DdDHT2TAZFSRR-28" value="" style="endArrow=none;html=1;fillColor=#FF2212;" edge="1" parent="1">
          <mxGeometry width="50" height="50" relative="1" as="geometry">
            <mxPoint x="530" y="309" as="sourcePoint" />
            <mxPoint x="530" y="309" as="targetPoint" />
          </mxGeometry>
        </mxCell>
        <mxCell id="6vAwja2DdDHT2TAZFSRR-29" value="" style="endArrow=none;html=1;fillColor=#FF2212;" edge="1" parent="1">
          <mxGeometry width="50" height="50" relative="1" as="geometry">
            <mxPoint x="320" y="80" as="sourcePoint" />
            <mxPoint x="320" y="40" as="targetPoint" />
          </mxGeometry>
        </mxCell>
        <mxCell id="6vAwja2DdDHT2TAZFSRR-31" value="" style="endArrow=none;html=1;fillColor=#03FF3D;" edge="1" parent="1">
          <mxGeometry width="50" height="50" relative="1" as="geometry">
            <mxPoint x="630" y="309" as="sourcePoint" />
            <mxPoint x="630" y="309" as="targetPoint" />
          </mxGeometry>
        </mxCell>
        <mxCell id="6vAwja2DdDHT2TAZFSRR-32" value="" style="endArrow=none;html=1;fillColor=#03FF3D;" edge="1" parent="1">
          <mxGeometry width="50" height="50" relative="1" as="geometry">
            <mxPoint x="400" y="80" as="sourcePoint" />
            <mxPoint x="400" y="40" as="targetPoint" />
          </mxGeometry>
        </mxCell>
        <mxCell id="6vAwja2DdDHT2TAZFSRR-34" value="" style="rounded=0;whiteSpace=wrap;html=1;fillColor=#61FF05;" vertex="1" parent="1">
          <mxGeometry x="140" y="279" width="220" height="40" as="geometry" />
        </mxCell>
        <mxCell id="6vAwja2DdDHT2TAZFSRR-35" value="" style="rounded=0;whiteSpace=wrap;html=1;fillColor=#61FF05;" vertex="1" parent="1">
          <mxGeometry x="40" y="279" width="100" height="40" as="geometry" />
        </mxCell>
        <mxCell id="6vAwja2DdDHT2TAZFSRR-36" value="" style="endArrow=none;html=1;fillColor=#61FF05;" edge="1" parent="1" source="6vAwja2DdDHT2TAZFSRR-35">
          <mxGeometry width="50" height="50" relative="1" as="geometry">
            <mxPoint x="100" y="319" as="sourcePoint" />
            <mxPoint x="100" y="279" as="targetPoint" />
          </mxGeometry>
        </mxCell>
        <mxCell id="6vAwja2DdDHT2TAZFSRR-37" value="" style="endArrow=none;html=1;fillColor=#61FF05;" edge="1" parent="1">
          <mxGeometry width="50" height="50" relative="1" as="geometry">
            <mxPoint x="60" y="319" as="sourcePoint" />
            <mxPoint x="60" y="279" as="targetPoint" />
          </mxGeometry>
        </mxCell>
        <mxCell id="6vAwja2DdDHT2TAZFSRR-38" value="" style="endArrow=none;html=1;fillColor=#61FF05;" edge="1" parent="1">
          <mxGeometry width="50" height="50" relative="1" as="geometry">
            <mxPoint x="320" y="319" as="sourcePoint" />
            <mxPoint x="320" y="279" as="targetPoint" />
          </mxGeometry>
        </mxCell>
        <mxCell id="6vAwja2DdDHT2TAZFSRR-39" value="" style="endArrow=none;html=1;fillColor=#61FF05;" edge="1" parent="1">
          <mxGeometry width="50" height="50" relative="1" as="geometry">
            <mxPoint x="340" y="319" as="sourcePoint" />
            <mxPoint x="340" y="279" as="targetPoint" />
            <Array as="points">
              <mxPoint x="340" y="299" />
            </Array>
          </mxGeometry>
        </mxCell>
        <mxCell id="6vAwja2DdDHT2TAZFSRR-40" value="" style="endArrow=none;html=1;fillColor=#61FF05;" edge="1" parent="1">
          <mxGeometry width="50" height="50" relative="1" as="geometry">
            <mxPoint x="80" y="319" as="sourcePoint" />
            <mxPoint x="80" y="279" as="targetPoint" />
          </mxGeometry>
        </mxCell>
        <mxCell id="6vAwja2DdDHT2TAZFSRR-41" value="" style="endArrow=none;html=1;fillColor=#61FF05;" edge="1" parent="1" source="6vAwja2DdDHT2TAZFSRR-34">
          <mxGeometry width="50" height="50" relative="1" as="geometry">
            <mxPoint x="200" y="319" as="sourcePoint" />
            <mxPoint x="200" y="279" as="targetPoint" />
          </mxGeometry>
        </mxCell>
        <mxCell id="6vAwja2DdDHT2TAZFSRR-42" value="" style="endArrow=none;html=1;fillColor=#61FF05;" edge="1" parent="1">
          <mxGeometry width="50" height="50" relative="1" as="geometry">
            <mxPoint x="240" y="319" as="sourcePoint" />
            <mxPoint x="240" y="279" as="targetPoint" />
          </mxGeometry>
        </mxCell>
        <mxCell id="6vAwja2DdDHT2TAZFSRR-43" value="" style="endArrow=none;html=1;fillColor=#61FF05;" edge="1" parent="1">
          <mxGeometry width="50" height="50" relative="1" as="geometry">
            <mxPoint x="280" y="319" as="sourcePoint" />
            <mxPoint x="280" y="279" as="targetPoint" />
          </mxGeometry>
        </mxCell>
        <mxCell id="6vAwja2DdDHT2TAZFSRR-44" value="" style="endArrow=none;html=1;fillColor=#61FF05;" edge="1" parent="1">
          <mxGeometry width="50" height="50" relative="1" as="geometry">
            <mxPoint x="100" y="319" as="sourcePoint" />
            <mxPoint x="100" y="279" as="targetPoint" />
          </mxGeometry>
        </mxCell>
        <mxCell id="6vAwja2DdDHT2TAZFSRR-45" value="" style="endArrow=none;html=1;fillColor=#61FF05;" edge="1" parent="1">
          <mxGeometry width="50" height="50" relative="1" as="geometry">
            <mxPoint x="160" y="319" as="sourcePoint" />
            <mxPoint x="160" y="279" as="targetPoint" />
          </mxGeometry>
        </mxCell>
        <mxCell id="6vAwja2DdDHT2TAZFSRR-46" value="" style="endArrow=none;html=1;fillColor=#61FF05;" edge="1" parent="1">
          <mxGeometry width="50" height="50" relative="1" as="geometry">
            <mxPoint x="220" y="319" as="sourcePoint" />
            <mxPoint x="220" y="279" as="targetPoint" />
          </mxGeometry>
        </mxCell>
        <mxCell id="6vAwja2DdDHT2TAZFSRR-47" value="" style="endArrow=none;html=1;fillColor=#61FF05;" edge="1" parent="1">
          <mxGeometry width="50" height="50" relative="1" as="geometry">
            <mxPoint x="220" y="279" as="sourcePoint" />
            <mxPoint x="220" y="279" as="targetPoint" />
          </mxGeometry>
        </mxCell>
        <mxCell id="6vAwja2DdDHT2TAZFSRR-48" value="" style="endArrow=none;html=1;fillColor=#61FF05;" edge="1" parent="1">
          <mxGeometry width="50" height="50" relative="1" as="geometry">
            <mxPoint x="260" y="319" as="sourcePoint" />
            <mxPoint x="260" y="279" as="targetPoint" />
          </mxGeometry>
        </mxCell>
        <mxCell id="6vAwja2DdDHT2TAZFSRR-49" value="" style="endArrow=none;html=1;fillColor=#61FF05;" edge="1" parent="1">
          <mxGeometry width="50" height="50" relative="1" as="geometry">
            <mxPoint x="300" y="319" as="sourcePoint" />
            <mxPoint x="300" y="279" as="targetPoint" />
          </mxGeometry>
        </mxCell>
        <mxCell id="6vAwja2DdDHT2TAZFSRR-50" value="" style="endArrow=none;html=1;fillColor=#61FF05;" edge="1" parent="1">
          <mxGeometry width="50" height="50" relative="1" as="geometry">
            <mxPoint x="140" y="319" as="sourcePoint" />
            <mxPoint x="140" y="279" as="targetPoint" />
          </mxGeometry>
        </mxCell>
        <mxCell id="6vAwja2DdDHT2TAZFSRR-51" value="" style="endArrow=none;html=1;fillColor=#61FF05;" edge="1" parent="1">
          <mxGeometry width="50" height="50" relative="1" as="geometry">
            <mxPoint x="180" y="319" as="sourcePoint" />
            <mxPoint x="180" y="279" as="targetPoint" />
          </mxGeometry>
        </mxCell>
        <mxCell id="6vAwja2DdDHT2TAZFSRR-52" value="" style="endArrow=none;html=1;fillColor=#61FF05;" edge="1" parent="1">
          <mxGeometry width="50" height="50" relative="1" as="geometry">
            <mxPoint x="220" y="319" as="sourcePoint" />
            <mxPoint x="220" y="319" as="targetPoint" />
          </mxGeometry>
        </mxCell>
        <mxCell id="6vAwja2DdDHT2TAZFSRR-53" value="" style="endArrow=none;html=1;fillColor=#61FF05;" edge="1" parent="1" target="6vAwja2DdDHT2TAZFSRR-35">
          <mxGeometry width="50" height="50" relative="1" as="geometry">
            <mxPoint x="100" y="319" as="sourcePoint" />
            <mxPoint x="100" y="279" as="targetPoint" />
          </mxGeometry>
        </mxCell>
        <mxCell id="6vAwja2DdDHT2TAZFSRR-54" value="" style="endArrow=none;html=1;fillColor=#61FF05;" edge="1" parent="1">
          <mxGeometry width="50" height="50" relative="1" as="geometry">
            <mxPoint x="120" y="319" as="sourcePoint" />
            <mxPoint x="120" y="279" as="targetPoint" />
          </mxGeometry>
        </mxCell>
        <mxCell id="6vAwja2DdDHT2TAZFSRR-55" value="" style="endArrow=none;html=1;fillColor=#61FF05;" edge="1" parent="1" target="6vAwja2DdDHT2TAZFSRR-34">
          <mxGeometry width="50" height="50" relative="1" as="geometry">
            <mxPoint x="200" y="319" as="sourcePoint" />
            <mxPoint x="200" y="279" as="targetPoint" />
          </mxGeometry>
        </mxCell>
        <mxCell id="6vAwja2DdDHT2TAZFSRR-56" value="" style="endArrow=none;html=1;fillColor=#61FF05;" edge="1" parent="1">
          <mxGeometry width="50" height="50" relative="1" as="geometry">
            <mxPoint x="200" y="319" as="sourcePoint" />
            <mxPoint x="200" y="279" as="targetPoint" />
          </mxGeometry>
        </mxCell>
        <mxCell id="6vAwja2DdDHT2TAZFSRR-58" value="" style="rounded=0;whiteSpace=wrap;html=1;fillColor=#61FF05;" vertex="1" parent="1">
          <mxGeometry x="580" y="279" width="220" height="40" as="geometry" />
        </mxCell>
        <mxCell id="6vAwja2DdDHT2TAZFSRR-59" value="" style="rounded=0;whiteSpace=wrap;html=1;fillColor=#FF2212;" vertex="1" parent="1">
          <mxGeometry x="480" y="279" width="100" height="40" as="geometry" />
        </mxCell>
        <mxCell id="6vAwja2DdDHT2TAZFSRR-60" value="" style="endArrow=none;html=1;fillColor=#FF2212;" edge="1" parent="1" source="6vAwja2DdDHT2TAZFSRR-59">
          <mxGeometry width="50" height="50" relative="1" as="geometry">
            <mxPoint x="540" y="319" as="sourcePoint" />
            <mxPoint x="540" y="279" as="targetPoint" />
          </mxGeometry>
        </mxCell>
        <mxCell id="6vAwja2DdDHT2TAZFSRR-61" value="" style="endArrow=none;html=1;fillColor=#FF2212;" edge="1" parent="1">
          <mxGeometry width="50" height="50" relative="1" as="geometry">
            <mxPoint x="500" y="319" as="sourcePoint" />
            <mxPoint x="500" y="279" as="targetPoint" />
          </mxGeometry>
        </mxCell>
        <mxCell id="6vAwja2DdDHT2TAZFSRR-62" value="" style="endArrow=none;html=1;fillColor=#03FF3D;" edge="1" parent="1">
          <mxGeometry width="50" height="50" relative="1" as="geometry">
            <mxPoint x="760" y="319" as="sourcePoint" />
            <mxPoint x="760" y="279" as="targetPoint" />
          </mxGeometry>
        </mxCell>
        <mxCell id="6vAwja2DdDHT2TAZFSRR-63" value="" style="endArrow=none;html=1;fillColor=#03FF3D;" edge="1" parent="1">
          <mxGeometry width="50" height="50" relative="1" as="geometry">
            <mxPoint x="780" y="319" as="sourcePoint" />
            <mxPoint x="780" y="279" as="targetPoint" />
            <Array as="points">
              <mxPoint x="780" y="299" />
            </Array>
          </mxGeometry>
        </mxCell>
        <mxCell id="6vAwja2DdDHT2TAZFSRR-64" value="" style="endArrow=none;html=1;fillColor=#FF2212;" edge="1" parent="1">
          <mxGeometry width="50" height="50" relative="1" as="geometry">
            <mxPoint x="520" y="319" as="sourcePoint" />
            <mxPoint x="520" y="279" as="targetPoint" />
          </mxGeometry>
        </mxCell>
        <mxCell id="6vAwja2DdDHT2TAZFSRR-65" value="" style="endArrow=none;html=1;fillColor=#03FF3D;" edge="1" parent="1" source="6vAwja2DdDHT2TAZFSRR-58">
          <mxGeometry width="50" height="50" relative="1" as="geometry">
            <mxPoint x="640" y="319" as="sourcePoint" />
            <mxPoint x="640" y="279" as="targetPoint" />
          </mxGeometry>
        </mxCell>
        <mxCell id="6vAwja2DdDHT2TAZFSRR-66" value="" style="endArrow=none;html=1;fillColor=#03FF3D;" edge="1" parent="1">
          <mxGeometry width="50" height="50" relative="1" as="geometry">
            <mxPoint x="680" y="319" as="sourcePoint" />
            <mxPoint x="680" y="279" as="targetPoint" />
          </mxGeometry>
        </mxCell>
        <mxCell id="6vAwja2DdDHT2TAZFSRR-67" value="" style="endArrow=none;html=1;fillColor=#03FF3D;" edge="1" parent="1">
          <mxGeometry width="50" height="50" relative="1" as="geometry">
            <mxPoint x="720" y="319" as="sourcePoint" />
            <mxPoint x="720" y="279" as="targetPoint" />
          </mxGeometry>
        </mxCell>
        <mxCell id="6vAwja2DdDHT2TAZFSRR-68" value="" style="endArrow=none;html=1;fillColor=#FF2212;" edge="1" parent="1">
          <mxGeometry width="50" height="50" relative="1" as="geometry">
            <mxPoint x="540" y="319" as="sourcePoint" />
            <mxPoint x="540" y="279" as="targetPoint" />
          </mxGeometry>
        </mxCell>
        <mxCell id="6vAwja2DdDHT2TAZFSRR-69" value="" style="endArrow=none;html=1;fillColor=#03FF3D;" edge="1" parent="1">
          <mxGeometry width="50" height="50" relative="1" as="geometry">
            <mxPoint x="600" y="319" as="sourcePoint" />
            <mxPoint x="600" y="279" as="targetPoint" />
          </mxGeometry>
        </mxCell>
        <mxCell id="6vAwja2DdDHT2TAZFSRR-70" value="" style="endArrow=none;html=1;fillColor=#03FF3D;" edge="1" parent="1">
          <mxGeometry width="50" height="50" relative="1" as="geometry">
            <mxPoint x="660" y="319" as="sourcePoint" />
            <mxPoint x="660" y="279" as="targetPoint" />
          </mxGeometry>
        </mxCell>
        <mxCell id="6vAwja2DdDHT2TAZFSRR-71" value="" style="endArrow=none;html=1;fillColor=#03FF3D;" edge="1" parent="1">
          <mxGeometry width="50" height="50" relative="1" as="geometry">
            <mxPoint x="660" y="279" as="sourcePoint" />
            <mxPoint x="660" y="279" as="targetPoint" />
          </mxGeometry>
        </mxCell>
        <mxCell id="6vAwja2DdDHT2TAZFSRR-72" value="" style="endArrow=none;html=1;fillColor=#03FF3D;" edge="1" parent="1">
          <mxGeometry width="50" height="50" relative="1" as="geometry">
            <mxPoint x="700" y="319" as="sourcePoint" />
            <mxPoint x="700" y="279" as="targetPoint" />
          </mxGeometry>
        </mxCell>
        <mxCell id="6vAwja2DdDHT2TAZFSRR-73" value="" style="endArrow=none;html=1;fillColor=#03FF3D;" edge="1" parent="1">
          <mxGeometry width="50" height="50" relative="1" as="geometry">
            <mxPoint x="740" y="319" as="sourcePoint" />
            <mxPoint x="740" y="279" as="targetPoint" />
          </mxGeometry>
        </mxCell>
        <mxCell id="6vAwja2DdDHT2TAZFSRR-74" value="" style="endArrow=none;html=1;fillColor=#FF2212;" edge="1" parent="1">
          <mxGeometry width="50" height="50" relative="1" as="geometry">
            <mxPoint x="580" y="319" as="sourcePoint" />
            <mxPoint x="580" y="279" as="targetPoint" />
          </mxGeometry>
        </mxCell>
        <mxCell id="6vAwja2DdDHT2TAZFSRR-75" value="" style="endArrow=none;html=1;fillColor=#03FF3D;" edge="1" parent="1">
          <mxGeometry width="50" height="50" relative="1" as="geometry">
            <mxPoint x="620" y="319" as="sourcePoint" />
            <mxPoint x="620" y="279" as="targetPoint" />
          </mxGeometry>
        </mxCell>
        <mxCell id="6vAwja2DdDHT2TAZFSRR-76" value="" style="endArrow=none;html=1;fillColor=#03FF3D;" edge="1" parent="1">
          <mxGeometry width="50" height="50" relative="1" as="geometry">
            <mxPoint x="660" y="319" as="sourcePoint" />
            <mxPoint x="660" y="319" as="targetPoint" />
          </mxGeometry>
        </mxCell>
        <mxCell id="6vAwja2DdDHT2TAZFSRR-77" value="" style="endArrow=none;html=1;fillColor=#FF2212;" edge="1" parent="1" target="6vAwja2DdDHT2TAZFSRR-59">
          <mxGeometry width="50" height="50" relative="1" as="geometry">
            <mxPoint x="540" y="319" as="sourcePoint" />
            <mxPoint x="540" y="279" as="targetPoint" />
          </mxGeometry>
        </mxCell>
        <mxCell id="6vAwja2DdDHT2TAZFSRR-78" value="" style="endArrow=none;html=1;fillColor=#FF2212;" edge="1" parent="1">
          <mxGeometry width="50" height="50" relative="1" as="geometry">
            <mxPoint x="560" y="319" as="sourcePoint" />
            <mxPoint x="560" y="279" as="targetPoint" />
          </mxGeometry>
        </mxCell>
        <mxCell id="6vAwja2DdDHT2TAZFSRR-79" value="" style="endArrow=none;html=1;fillColor=#03FF3D;" edge="1" parent="1" target="6vAwja2DdDHT2TAZFSRR-58">
          <mxGeometry width="50" height="50" relative="1" as="geometry">
            <mxPoint x="640" y="319" as="sourcePoint" />
            <mxPoint x="640" y="279" as="targetPoint" />
          </mxGeometry>
        </mxCell>
        <mxCell id="6vAwja2DdDHT2TAZFSRR-80" value="" style="endArrow=none;html=1;fillColor=#03FF3D;" edge="1" parent="1">
          <mxGeometry width="50" height="50" relative="1" as="geometry">
            <mxPoint x="640" y="319" as="sourcePoint" />
            <mxPoint x="640" y="279" as="targetPoint" />
          </mxGeometry>
        </mxCell>
        <mxCell id="6vAwja2DdDHT2TAZFSRR-82" value="" style="endArrow=classic;html=1;strokeColor=#FF4529;fillColor=#61FF05;" edge="1" parent="1">
          <mxGeometry width="50" height="50" relative="1" as="geometry">
            <mxPoint x="440" y="80" as="sourcePoint" />
            <mxPoint x="640" y="279" as="targetPoint" />
            <Array as="points">
              <mxPoint x="440" y="200" />
              <mxPoint x="640" y="200" />
            </Array>
          </mxGeometry>
        </mxCell>
        <mxCell id="6vAwja2DdDHT2TAZFSRR-153" value="" style="rounded=0;whiteSpace=wrap;html=1;fillColor=#61FF05;" vertex="1" parent="1">
          <mxGeometry x="340" y="400" width="220" height="40" as="geometry" />
        </mxCell>
        <mxCell id="6vAwja2DdDHT2TAZFSRR-154" value="" style="rounded=0;whiteSpace=wrap;html=1;fillColor=#FF2212;" vertex="1" parent="1">
          <mxGeometry x="240" y="400" width="100" height="40" as="geometry" />
        </mxCell>
        <mxCell id="6vAwja2DdDHT2TAZFSRR-155" value="" style="endArrow=none;html=1;fillColor=#FF2212;" edge="1" parent="1" source="6vAwja2DdDHT2TAZFSRR-154">
          <mxGeometry width="50" height="50" relative="1" as="geometry">
            <mxPoint x="300" y="440" as="sourcePoint" />
            <mxPoint x="300" y="400" as="targetPoint" />
          </mxGeometry>
        </mxCell>
        <mxCell id="6vAwja2DdDHT2TAZFSRR-156" value="" style="endArrow=none;html=1;fillColor=#FF2212;" edge="1" parent="1">
          <mxGeometry width="50" height="50" relative="1" as="geometry">
            <mxPoint x="260" y="440" as="sourcePoint" />
            <mxPoint x="260" y="400" as="targetPoint" />
          </mxGeometry>
        </mxCell>
        <mxCell id="6vAwja2DdDHT2TAZFSRR-157" value="" style="endArrow=none;html=1;fillColor=#03FF3D;" edge="1" parent="1">
          <mxGeometry width="50" height="50" relative="1" as="geometry">
            <mxPoint x="520" y="440" as="sourcePoint" />
            <mxPoint x="520" y="400" as="targetPoint" />
          </mxGeometry>
        </mxCell>
        <mxCell id="6vAwja2DdDHT2TAZFSRR-158" value="" style="endArrow=none;html=1;fillColor=#03FF3D;" edge="1" parent="1">
          <mxGeometry width="50" height="50" relative="1" as="geometry">
            <mxPoint x="540" y="440" as="sourcePoint" />
            <mxPoint x="540" y="400" as="targetPoint" />
            <Array as="points">
              <mxPoint x="540" y="420" />
            </Array>
          </mxGeometry>
        </mxCell>
        <mxCell id="6vAwja2DdDHT2TAZFSRR-159" value="" style="endArrow=none;html=1;fillColor=#FF2212;" edge="1" parent="1">
          <mxGeometry width="50" height="50" relative="1" as="geometry">
            <mxPoint x="280" y="440" as="sourcePoint" />
            <mxPoint x="280" y="400" as="targetPoint" />
          </mxGeometry>
        </mxCell>
        <mxCell id="6vAwja2DdDHT2TAZFSRR-160" value="" style="endArrow=none;html=1;fillColor=#03FF3D;" edge="1" parent="1" source="6vAwja2DdDHT2TAZFSRR-153">
          <mxGeometry width="50" height="50" relative="1" as="geometry">
            <mxPoint x="400" y="440" as="sourcePoint" />
            <mxPoint x="400" y="400" as="targetPoint" />
          </mxGeometry>
        </mxCell>
        <mxCell id="6vAwja2DdDHT2TAZFSRR-161" value="" style="endArrow=none;html=1;fillColor=#03FF3D;" edge="1" parent="1">
          <mxGeometry width="50" height="50" relative="1" as="geometry">
            <mxPoint x="440" y="440" as="sourcePoint" />
            <mxPoint x="440" y="400" as="targetPoint" />
          </mxGeometry>
        </mxCell>
        <mxCell id="6vAwja2DdDHT2TAZFSRR-162" value="" style="endArrow=none;html=1;fillColor=#03FF3D;" edge="1" parent="1">
          <mxGeometry width="50" height="50" relative="1" as="geometry">
            <mxPoint x="480" y="440" as="sourcePoint" />
            <mxPoint x="480" y="400" as="targetPoint" />
          </mxGeometry>
        </mxCell>
        <mxCell id="6vAwja2DdDHT2TAZFSRR-163" value="" style="endArrow=none;html=1;fillColor=#FF2212;" edge="1" parent="1">
          <mxGeometry width="50" height="50" relative="1" as="geometry">
            <mxPoint x="300" y="440" as="sourcePoint" />
            <mxPoint x="300" y="400" as="targetPoint" />
          </mxGeometry>
        </mxCell>
        <mxCell id="6vAwja2DdDHT2TAZFSRR-164" value="" style="endArrow=none;html=1;fillColor=#03FF3D;" edge="1" parent="1">
          <mxGeometry width="50" height="50" relative="1" as="geometry">
            <mxPoint x="360" y="440" as="sourcePoint" />
            <mxPoint x="360" y="400" as="targetPoint" />
          </mxGeometry>
        </mxCell>
        <mxCell id="6vAwja2DdDHT2TAZFSRR-165" value="" style="endArrow=none;html=1;fillColor=#03FF3D;" edge="1" parent="1">
          <mxGeometry width="50" height="50" relative="1" as="geometry">
            <mxPoint x="420" y="440" as="sourcePoint" />
            <mxPoint x="420" y="400" as="targetPoint" />
          </mxGeometry>
        </mxCell>
        <mxCell id="6vAwja2DdDHT2TAZFSRR-166" value="" style="endArrow=none;html=1;fillColor=#03FF3D;" edge="1" parent="1">
          <mxGeometry width="50" height="50" relative="1" as="geometry">
            <mxPoint x="420" y="400" as="sourcePoint" />
            <mxPoint x="420" y="400" as="targetPoint" />
          </mxGeometry>
        </mxCell>
        <mxCell id="6vAwja2DdDHT2TAZFSRR-167" value="" style="endArrow=none;html=1;fillColor=#03FF3D;" edge="1" parent="1">
          <mxGeometry width="50" height="50" relative="1" as="geometry">
            <mxPoint x="460" y="440" as="sourcePoint" />
            <mxPoint x="460" y="400" as="targetPoint" />
          </mxGeometry>
        </mxCell>
        <mxCell id="6vAwja2DdDHT2TAZFSRR-168" value="" style="endArrow=none;html=1;fillColor=#03FF3D;" edge="1" parent="1">
          <mxGeometry width="50" height="50" relative="1" as="geometry">
            <mxPoint x="500" y="440" as="sourcePoint" />
            <mxPoint x="500" y="400" as="targetPoint" />
          </mxGeometry>
        </mxCell>
        <mxCell id="6vAwja2DdDHT2TAZFSRR-169" value="" style="endArrow=none;html=1;fillColor=#FF2212;" edge="1" parent="1">
          <mxGeometry width="50" height="50" relative="1" as="geometry">
            <mxPoint x="340" y="440" as="sourcePoint" />
            <mxPoint x="340" y="400" as="targetPoint" />
          </mxGeometry>
        </mxCell>
        <mxCell id="6vAwja2DdDHT2TAZFSRR-170" value="" style="endArrow=none;html=1;fillColor=#03FF3D;" edge="1" parent="1">
          <mxGeometry width="50" height="50" relative="1" as="geometry">
            <mxPoint x="380" y="440" as="sourcePoint" />
            <mxPoint x="380" y="400" as="targetPoint" />
          </mxGeometry>
        </mxCell>
        <mxCell id="6vAwja2DdDHT2TAZFSRR-171" value="" style="endArrow=none;html=1;fillColor=#03FF3D;" edge="1" parent="1">
          <mxGeometry width="50" height="50" relative="1" as="geometry">
            <mxPoint x="650" y="669" as="sourcePoint" />
            <mxPoint x="650" y="669" as="targetPoint" />
          </mxGeometry>
        </mxCell>
        <mxCell id="6vAwja2DdDHT2TAZFSRR-172" value="" style="endArrow=none;html=1;fillColor=#FF2212;" edge="1" parent="1">
          <mxGeometry width="50" height="50" relative="1" as="geometry">
            <mxPoint x="530" y="669" as="sourcePoint" />
            <mxPoint x="530" y="669" as="targetPoint" />
          </mxGeometry>
        </mxCell>
        <mxCell id="6vAwja2DdDHT2TAZFSRR-173" value="" style="endArrow=none;html=1;fillColor=#FF2212;" edge="1" parent="1">
          <mxGeometry width="50" height="50" relative="1" as="geometry">
            <mxPoint x="320" y="440" as="sourcePoint" />
            <mxPoint x="320" y="400" as="targetPoint" />
          </mxGeometry>
        </mxCell>
        <mxCell id="6vAwja2DdDHT2TAZFSRR-174" value="" style="endArrow=none;html=1;fillColor=#03FF3D;" edge="1" parent="1">
          <mxGeometry width="50" height="50" relative="1" as="geometry">
            <mxPoint x="630" y="669" as="sourcePoint" />
            <mxPoint x="630" y="669" as="targetPoint" />
          </mxGeometry>
        </mxCell>
        <mxCell id="6vAwja2DdDHT2TAZFSRR-175" value="" style="endArrow=none;html=1;fillColor=#03FF3D;" edge="1" parent="1">
          <mxGeometry width="50" height="50" relative="1" as="geometry">
            <mxPoint x="400" y="440" as="sourcePoint" />
            <mxPoint x="400" y="400" as="targetPoint" />
          </mxGeometry>
        </mxCell>
        <mxCell id="6vAwja2DdDHT2TAZFSRR-176" value="" style="rounded=0;whiteSpace=wrap;html=1;fillColor=#FF8000;" vertex="1" parent="1">
          <mxGeometry x="140" y="639" width="220" height="40" as="geometry" />
        </mxCell>
        <mxCell id="6vAwja2DdDHT2TAZFSRR-177" value="" style="rounded=0;whiteSpace=wrap;html=1;fillColor=#FF8000;" vertex="1" parent="1">
          <mxGeometry x="40" y="639" width="100" height="40" as="geometry" />
        </mxCell>
        <mxCell id="6vAwja2DdDHT2TAZFSRR-178" value="" style="endArrow=none;html=1;fillColor=#FF8000;" edge="1" parent="1" source="6vAwja2DdDHT2TAZFSRR-177">
          <mxGeometry width="50" height="50" relative="1" as="geometry">
            <mxPoint x="100" y="679" as="sourcePoint" />
            <mxPoint x="100" y="639" as="targetPoint" />
          </mxGeometry>
        </mxCell>
        <mxCell id="6vAwja2DdDHT2TAZFSRR-179" value="" style="endArrow=none;html=1;fillColor=#FF8000;" edge="1" parent="1">
          <mxGeometry width="50" height="50" relative="1" as="geometry">
            <mxPoint x="60" y="679" as="sourcePoint" />
            <mxPoint x="60" y="639" as="targetPoint" />
          </mxGeometry>
        </mxCell>
        <mxCell id="6vAwja2DdDHT2TAZFSRR-180" value="" style="endArrow=none;html=1;fillColor=#FF8000;" edge="1" parent="1">
          <mxGeometry width="50" height="50" relative="1" as="geometry">
            <mxPoint x="320" y="679" as="sourcePoint" />
            <mxPoint x="320" y="639" as="targetPoint" />
          </mxGeometry>
        </mxCell>
        <mxCell id="6vAwja2DdDHT2TAZFSRR-181" value="" style="endArrow=none;html=1;fillColor=#FF8000;" edge="1" parent="1">
          <mxGeometry width="50" height="50" relative="1" as="geometry">
            <mxPoint x="340" y="679" as="sourcePoint" />
            <mxPoint x="340" y="639" as="targetPoint" />
            <Array as="points">
              <mxPoint x="340" y="659" />
            </Array>
          </mxGeometry>
        </mxCell>
        <mxCell id="6vAwja2DdDHT2TAZFSRR-182" value="" style="endArrow=none;html=1;fillColor=#FF8000;" edge="1" parent="1">
          <mxGeometry width="50" height="50" relative="1" as="geometry">
            <mxPoint x="80" y="679" as="sourcePoint" />
            <mxPoint x="80" y="639" as="targetPoint" />
          </mxGeometry>
        </mxCell>
        <mxCell id="6vAwja2DdDHT2TAZFSRR-183" value="" style="endArrow=none;html=1;fillColor=#FF8000;" edge="1" parent="1" source="6vAwja2DdDHT2TAZFSRR-176">
          <mxGeometry width="50" height="50" relative="1" as="geometry">
            <mxPoint x="200" y="679" as="sourcePoint" />
            <mxPoint x="200" y="639" as="targetPoint" />
          </mxGeometry>
        </mxCell>
        <mxCell id="6vAwja2DdDHT2TAZFSRR-184" value="" style="endArrow=none;html=1;fillColor=#FF8000;" edge="1" parent="1">
          <mxGeometry width="50" height="50" relative="1" as="geometry">
            <mxPoint x="240" y="679" as="sourcePoint" />
            <mxPoint x="240" y="639" as="targetPoint" />
          </mxGeometry>
        </mxCell>
        <mxCell id="6vAwja2DdDHT2TAZFSRR-185" value="" style="endArrow=none;html=1;fillColor=#FF8000;" edge="1" parent="1">
          <mxGeometry width="50" height="50" relative="1" as="geometry">
            <mxPoint x="280" y="679" as="sourcePoint" />
            <mxPoint x="280" y="639" as="targetPoint" />
          </mxGeometry>
        </mxCell>
        <mxCell id="6vAwja2DdDHT2TAZFSRR-186" value="" style="endArrow=none;html=1;fillColor=#FF8000;" edge="1" parent="1">
          <mxGeometry width="50" height="50" relative="1" as="geometry">
            <mxPoint x="100" y="679" as="sourcePoint" />
            <mxPoint x="100" y="639" as="targetPoint" />
          </mxGeometry>
        </mxCell>
        <mxCell id="6vAwja2DdDHT2TAZFSRR-187" value="" style="endArrow=none;html=1;fillColor=#FF8000;" edge="1" parent="1">
          <mxGeometry width="50" height="50" relative="1" as="geometry">
            <mxPoint x="160" y="679" as="sourcePoint" />
            <mxPoint x="160" y="639" as="targetPoint" />
          </mxGeometry>
        </mxCell>
        <mxCell id="6vAwja2DdDHT2TAZFSRR-188" value="" style="endArrow=none;html=1;fillColor=#FF8000;" edge="1" parent="1">
          <mxGeometry width="50" height="50" relative="1" as="geometry">
            <mxPoint x="220" y="679" as="sourcePoint" />
            <mxPoint x="220" y="639" as="targetPoint" />
          </mxGeometry>
        </mxCell>
        <mxCell id="6vAwja2DdDHT2TAZFSRR-189" value="" style="endArrow=none;html=1;fillColor=#FF8000;" edge="1" parent="1">
          <mxGeometry width="50" height="50" relative="1" as="geometry">
            <mxPoint x="220" y="639" as="sourcePoint" />
            <mxPoint x="220" y="639" as="targetPoint" />
          </mxGeometry>
        </mxCell>
        <mxCell id="6vAwja2DdDHT2TAZFSRR-190" value="" style="endArrow=none;html=1;fillColor=#FF8000;" edge="1" parent="1">
          <mxGeometry width="50" height="50" relative="1" as="geometry">
            <mxPoint x="260" y="679" as="sourcePoint" />
            <mxPoint x="260" y="639" as="targetPoint" />
          </mxGeometry>
        </mxCell>
        <mxCell id="6vAwja2DdDHT2TAZFSRR-191" value="" style="endArrow=none;html=1;fillColor=#FF8000;" edge="1" parent="1">
          <mxGeometry width="50" height="50" relative="1" as="geometry">
            <mxPoint x="300" y="679" as="sourcePoint" />
            <mxPoint x="300" y="639" as="targetPoint" />
          </mxGeometry>
        </mxCell>
        <mxCell id="6vAwja2DdDHT2TAZFSRR-192" value="" style="endArrow=none;html=1;fillColor=#FF8000;" edge="1" parent="1">
          <mxGeometry width="50" height="50" relative="1" as="geometry">
            <mxPoint x="140" y="679" as="sourcePoint" />
            <mxPoint x="140" y="639" as="targetPoint" />
          </mxGeometry>
        </mxCell>
        <mxCell id="6vAwja2DdDHT2TAZFSRR-193" value="" style="endArrow=none;html=1;fillColor=#FF8000;" edge="1" parent="1">
          <mxGeometry width="50" height="50" relative="1" as="geometry">
            <mxPoint x="180" y="679" as="sourcePoint" />
            <mxPoint x="180" y="639" as="targetPoint" />
          </mxGeometry>
        </mxCell>
        <mxCell id="6vAwja2DdDHT2TAZFSRR-194" value="" style="endArrow=none;html=1;fillColor=#FF8000;" edge="1" parent="1">
          <mxGeometry width="50" height="50" relative="1" as="geometry">
            <mxPoint x="220" y="679" as="sourcePoint" />
            <mxPoint x="220" y="679" as="targetPoint" />
          </mxGeometry>
        </mxCell>
        <mxCell id="6vAwja2DdDHT2TAZFSRR-195" value="" style="endArrow=none;html=1;fillColor=#FF8000;" edge="1" parent="1" target="6vAwja2DdDHT2TAZFSRR-177">
          <mxGeometry width="50" height="50" relative="1" as="geometry">
            <mxPoint x="100" y="679" as="sourcePoint" />
            <mxPoint x="100" y="639" as="targetPoint" />
          </mxGeometry>
        </mxCell>
        <mxCell id="6vAwja2DdDHT2TAZFSRR-196" value="" style="endArrow=none;html=1;fillColor=#FF8000;" edge="1" parent="1">
          <mxGeometry width="50" height="50" relative="1" as="geometry">
            <mxPoint x="120" y="679" as="sourcePoint" />
            <mxPoint x="120" y="639" as="targetPoint" />
          </mxGeometry>
        </mxCell>
        <mxCell id="6vAwja2DdDHT2TAZFSRR-197" value="" style="endArrow=none;html=1;fillColor=#FF8000;" edge="1" parent="1" target="6vAwja2DdDHT2TAZFSRR-176">
          <mxGeometry width="50" height="50" relative="1" as="geometry">
            <mxPoint x="200" y="679" as="sourcePoint" />
            <mxPoint x="200" y="639" as="targetPoint" />
          </mxGeometry>
        </mxCell>
        <mxCell id="6vAwja2DdDHT2TAZFSRR-198" value="" style="endArrow=none;html=1;fillColor=#FF8000;" edge="1" parent="1">
          <mxGeometry width="50" height="50" relative="1" as="geometry">
            <mxPoint x="200" y="679" as="sourcePoint" />
            <mxPoint x="200" y="639" as="targetPoint" />
          </mxGeometry>
        </mxCell>
        <mxCell id="6vAwja2DdDHT2TAZFSRR-199" value="" style="rounded=0;whiteSpace=wrap;html=1;fillColor=#61FF05;" vertex="1" parent="1">
          <mxGeometry x="580" y="639" width="220" height="40" as="geometry" />
        </mxCell>
        <mxCell id="6vAwja2DdDHT2TAZFSRR-200" value="" style="rounded=0;whiteSpace=wrap;html=1;fillColor=#FF2212;" vertex="1" parent="1">
          <mxGeometry x="480" y="639" width="100" height="40" as="geometry" />
        </mxCell>
        <mxCell id="6vAwja2DdDHT2TAZFSRR-201" value="" style="endArrow=none;html=1;fillColor=#FF2212;" edge="1" parent="1" source="6vAwja2DdDHT2TAZFSRR-200">
          <mxGeometry width="50" height="50" relative="1" as="geometry">
            <mxPoint x="540" y="679" as="sourcePoint" />
            <mxPoint x="540" y="639" as="targetPoint" />
          </mxGeometry>
        </mxCell>
        <mxCell id="6vAwja2DdDHT2TAZFSRR-202" value="" style="endArrow=none;html=1;fillColor=#FF2212;" edge="1" parent="1">
          <mxGeometry width="50" height="50" relative="1" as="geometry">
            <mxPoint x="500" y="679" as="sourcePoint" />
            <mxPoint x="500" y="639" as="targetPoint" />
          </mxGeometry>
        </mxCell>
        <mxCell id="6vAwja2DdDHT2TAZFSRR-203" value="" style="endArrow=none;html=1;fillColor=#03FF3D;" edge="1" parent="1">
          <mxGeometry width="50" height="50" relative="1" as="geometry">
            <mxPoint x="760" y="679" as="sourcePoint" />
            <mxPoint x="760" y="639" as="targetPoint" />
          </mxGeometry>
        </mxCell>
        <mxCell id="6vAwja2DdDHT2TAZFSRR-204" value="" style="endArrow=none;html=1;fillColor=#03FF3D;" edge="1" parent="1">
          <mxGeometry width="50" height="50" relative="1" as="geometry">
            <mxPoint x="780" y="679" as="sourcePoint" />
            <mxPoint x="780" y="639" as="targetPoint" />
            <Array as="points">
              <mxPoint x="780" y="659" />
            </Array>
          </mxGeometry>
        </mxCell>
        <mxCell id="6vAwja2DdDHT2TAZFSRR-205" value="" style="endArrow=none;html=1;fillColor=#FF2212;" edge="1" parent="1">
          <mxGeometry width="50" height="50" relative="1" as="geometry">
            <mxPoint x="520" y="679" as="sourcePoint" />
            <mxPoint x="520" y="639" as="targetPoint" />
          </mxGeometry>
        </mxCell>
        <mxCell id="6vAwja2DdDHT2TAZFSRR-206" value="" style="endArrow=none;html=1;fillColor=#03FF3D;" edge="1" parent="1" source="6vAwja2DdDHT2TAZFSRR-199">
          <mxGeometry width="50" height="50" relative="1" as="geometry">
            <mxPoint x="640" y="679" as="sourcePoint" />
            <mxPoint x="640" y="639" as="targetPoint" />
          </mxGeometry>
        </mxCell>
        <mxCell id="6vAwja2DdDHT2TAZFSRR-207" value="" style="endArrow=none;html=1;fillColor=#03FF3D;" edge="1" parent="1">
          <mxGeometry width="50" height="50" relative="1" as="geometry">
            <mxPoint x="680" y="679" as="sourcePoint" />
            <mxPoint x="680" y="639" as="targetPoint" />
          </mxGeometry>
        </mxCell>
        <mxCell id="6vAwja2DdDHT2TAZFSRR-208" value="" style="endArrow=none;html=1;fillColor=#03FF3D;" edge="1" parent="1">
          <mxGeometry width="50" height="50" relative="1" as="geometry">
            <mxPoint x="720" y="679" as="sourcePoint" />
            <mxPoint x="720" y="639" as="targetPoint" />
          </mxGeometry>
        </mxCell>
        <mxCell id="6vAwja2DdDHT2TAZFSRR-209" value="" style="endArrow=none;html=1;fillColor=#FF2212;" edge="1" parent="1">
          <mxGeometry width="50" height="50" relative="1" as="geometry">
            <mxPoint x="540" y="679" as="sourcePoint" />
            <mxPoint x="540" y="639" as="targetPoint" />
          </mxGeometry>
        </mxCell>
        <mxCell id="6vAwja2DdDHT2TAZFSRR-210" value="" style="endArrow=none;html=1;fillColor=#03FF3D;" edge="1" parent="1">
          <mxGeometry width="50" height="50" relative="1" as="geometry">
            <mxPoint x="600" y="679" as="sourcePoint" />
            <mxPoint x="600" y="639" as="targetPoint" />
          </mxGeometry>
        </mxCell>
        <mxCell id="6vAwja2DdDHT2TAZFSRR-211" value="" style="endArrow=none;html=1;fillColor=#03FF3D;" edge="1" parent="1">
          <mxGeometry width="50" height="50" relative="1" as="geometry">
            <mxPoint x="660" y="679" as="sourcePoint" />
            <mxPoint x="660" y="639" as="targetPoint" />
          </mxGeometry>
        </mxCell>
        <mxCell id="6vAwja2DdDHT2TAZFSRR-212" value="" style="endArrow=none;html=1;fillColor=#03FF3D;" edge="1" parent="1">
          <mxGeometry width="50" height="50" relative="1" as="geometry">
            <mxPoint x="660" y="639" as="sourcePoint" />
            <mxPoint x="660" y="639" as="targetPoint" />
          </mxGeometry>
        </mxCell>
        <mxCell id="6vAwja2DdDHT2TAZFSRR-213" value="" style="endArrow=none;html=1;fillColor=#03FF3D;" edge="1" parent="1">
          <mxGeometry width="50" height="50" relative="1" as="geometry">
            <mxPoint x="700" y="679" as="sourcePoint" />
            <mxPoint x="700" y="639" as="targetPoint" />
          </mxGeometry>
        </mxCell>
        <mxCell id="6vAwja2DdDHT2TAZFSRR-214" value="" style="endArrow=none;html=1;fillColor=#03FF3D;" edge="1" parent="1">
          <mxGeometry width="50" height="50" relative="1" as="geometry">
            <mxPoint x="740" y="679" as="sourcePoint" />
            <mxPoint x="740" y="639" as="targetPoint" />
          </mxGeometry>
        </mxCell>
        <mxCell id="6vAwja2DdDHT2TAZFSRR-215" value="" style="endArrow=none;html=1;fillColor=#FF2212;" edge="1" parent="1">
          <mxGeometry width="50" height="50" relative="1" as="geometry">
            <mxPoint x="580" y="679" as="sourcePoint" />
            <mxPoint x="580" y="639" as="targetPoint" />
          </mxGeometry>
        </mxCell>
        <mxCell id="6vAwja2DdDHT2TAZFSRR-216" value="" style="endArrow=none;html=1;fillColor=#03FF3D;" edge="1" parent="1">
          <mxGeometry width="50" height="50" relative="1" as="geometry">
            <mxPoint x="620" y="679" as="sourcePoint" />
            <mxPoint x="620" y="639" as="targetPoint" />
          </mxGeometry>
        </mxCell>
        <mxCell id="6vAwja2DdDHT2TAZFSRR-217" value="" style="endArrow=none;html=1;fillColor=#03FF3D;" edge="1" parent="1">
          <mxGeometry width="50" height="50" relative="1" as="geometry">
            <mxPoint x="660" y="679" as="sourcePoint" />
            <mxPoint x="660" y="679" as="targetPoint" />
          </mxGeometry>
        </mxCell>
        <mxCell id="6vAwja2DdDHT2TAZFSRR-218" value="" style="endArrow=none;html=1;fillColor=#FF2212;" edge="1" parent="1" target="6vAwja2DdDHT2TAZFSRR-200">
          <mxGeometry width="50" height="50" relative="1" as="geometry">
            <mxPoint x="540" y="679" as="sourcePoint" />
            <mxPoint x="540" y="639" as="targetPoint" />
          </mxGeometry>
        </mxCell>
        <mxCell id="6vAwja2DdDHT2TAZFSRR-219" value="" style="endArrow=none;html=1;fillColor=#FF2212;" edge="1" parent="1">
          <mxGeometry width="50" height="50" relative="1" as="geometry">
            <mxPoint x="560" y="679" as="sourcePoint" />
            <mxPoint x="560" y="639" as="targetPoint" />
          </mxGeometry>
        </mxCell>
        <mxCell id="6vAwja2DdDHT2TAZFSRR-220" value="" style="endArrow=none;html=1;fillColor=#03FF3D;" edge="1" parent="1" target="6vAwja2DdDHT2TAZFSRR-199">
          <mxGeometry width="50" height="50" relative="1" as="geometry">
            <mxPoint x="640" y="679" as="sourcePoint" />
            <mxPoint x="640" y="639" as="targetPoint" />
          </mxGeometry>
        </mxCell>
        <mxCell id="6vAwja2DdDHT2TAZFSRR-221" value="" style="endArrow=none;html=1;fillColor=#03FF3D;" edge="1" parent="1">
          <mxGeometry width="50" height="50" relative="1" as="geometry">
            <mxPoint x="640" y="679" as="sourcePoint" />
            <mxPoint x="640" y="639" as="targetPoint" />
          </mxGeometry>
        </mxCell>
        <mxCell id="6vAwja2DdDHT2TAZFSRR-222" value="" style="endArrow=classic;html=1;strokeColor=#FF4529;fillColor=#61FF05;" edge="1" parent="1">
          <mxGeometry width="50" height="50" relative="1" as="geometry">
            <mxPoint x="200" y="639" as="sourcePoint" />
            <mxPoint x="380" y="440" as="targetPoint" />
            <Array as="points">
              <mxPoint x="200" y="560" />
              <mxPoint x="380" y="560" />
            </Array>
          </mxGeometry>
        </mxCell>
        <mxCell id="6vAwja2DdDHT2TAZFSRR-252" value="" style="endArrow=classic;html=1;strokeColor=#FF4529;fillColor=#61FF05;exitX=0.091;exitY=1;exitDx=0;exitDy=0;exitPerimeter=0;" edge="1" parent="1" source="6vAwja2DdDHT2TAZFSRR-30">
          <mxGeometry width="50" height="50" relative="1" as="geometry">
            <mxPoint x="10" y="90" as="sourcePoint" />
            <mxPoint x="200" y="280" as="targetPoint" />
            <Array as="points">
              <mxPoint x="360" y="200" />
              <mxPoint x="200" y="200" />
            </Array>
          </mxGeometry>
        </mxCell>
        <mxCell id="6vAwja2DdDHT2TAZFSRR-271" value="" style="endArrow=none;html=1;fillColor=#03FF3D;" edge="1" parent="1">
          <mxGeometry width="50" height="50" relative="1" as="geometry">
            <mxPoint x="550" y="1029" as="sourcePoint" />
            <mxPoint x="550" y="1029" as="targetPoint" />
          </mxGeometry>
        </mxCell>
        <mxCell id="6vAwja2DdDHT2TAZFSRR-272" value="" style="endArrow=none;html=1;fillColor=#FF2212;" edge="1" parent="1">
          <mxGeometry width="50" height="50" relative="1" as="geometry">
            <mxPoint x="310" y="1029" as="sourcePoint" />
            <mxPoint x="310" y="1029" as="targetPoint" />
          </mxGeometry>
        </mxCell>
        <mxCell id="6vAwja2DdDHT2TAZFSRR-274" value="" style="endArrow=none;html=1;fillColor=#03FF3D;" edge="1" parent="1">
          <mxGeometry width="50" height="50" relative="1" as="geometry">
            <mxPoint x="530" y="1029" as="sourcePoint" />
            <mxPoint x="530" y="1029" as="targetPoint" />
          </mxGeometry>
        </mxCell>
        <mxCell id="6vAwja2DdDHT2TAZFSRR-276" value="" style="rounded=0;whiteSpace=wrap;html=1;fillColor=none;" vertex="1" parent="1">
          <mxGeometry x="40" y="999" width="220" height="40" as="geometry" />
        </mxCell>
        <mxCell id="6vAwja2DdDHT2TAZFSRR-280" value="" style="endArrow=none;html=1;fillColor=none;" edge="1" parent="1">
          <mxGeometry width="50" height="50" relative="1" as="geometry">
            <mxPoint x="220" y="1039" as="sourcePoint" />
            <mxPoint x="220" y="999" as="targetPoint" />
          </mxGeometry>
        </mxCell>
        <mxCell id="6vAwja2DdDHT2TAZFSRR-281" value="" style="endArrow=none;html=1;fillColor=none;" edge="1" parent="1">
          <mxGeometry width="50" height="50" relative="1" as="geometry">
            <mxPoint x="240" y="1039" as="sourcePoint" />
            <mxPoint x="240" y="999" as="targetPoint" />
            <Array as="points">
              <mxPoint x="240" y="1019" />
            </Array>
          </mxGeometry>
        </mxCell>
        <mxCell id="6vAwja2DdDHT2TAZFSRR-283" value="" style="endArrow=none;html=1;fillColor=none;" edge="1" parent="1" source="6vAwja2DdDHT2TAZFSRR-276">
          <mxGeometry width="50" height="50" relative="1" as="geometry">
            <mxPoint x="100" y="1039" as="sourcePoint" />
            <mxPoint x="100" y="999" as="targetPoint" />
          </mxGeometry>
        </mxCell>
        <mxCell id="6vAwja2DdDHT2TAZFSRR-284" value="" style="endArrow=none;html=1;fillColor=none;" edge="1" parent="1">
          <mxGeometry width="50" height="50" relative="1" as="geometry">
            <mxPoint x="140" y="1039" as="sourcePoint" />
            <mxPoint x="140" y="999" as="targetPoint" />
          </mxGeometry>
        </mxCell>
        <mxCell id="6vAwja2DdDHT2TAZFSRR-285" value="" style="endArrow=none;html=1;fillColor=none;" edge="1" parent="1">
          <mxGeometry width="50" height="50" relative="1" as="geometry">
            <mxPoint x="180" y="1039" as="sourcePoint" />
            <mxPoint x="180" y="999" as="targetPoint" />
          </mxGeometry>
        </mxCell>
        <mxCell id="6vAwja2DdDHT2TAZFSRR-287" value="" style="endArrow=none;html=1;fillColor=none;" edge="1" parent="1">
          <mxGeometry width="50" height="50" relative="1" as="geometry">
            <mxPoint x="60" y="1039" as="sourcePoint" />
            <mxPoint x="60" y="999" as="targetPoint" />
          </mxGeometry>
        </mxCell>
        <mxCell id="6vAwja2DdDHT2TAZFSRR-288" value="" style="endArrow=none;html=1;fillColor=none;" edge="1" parent="1">
          <mxGeometry width="50" height="50" relative="1" as="geometry">
            <mxPoint x="120" y="1039" as="sourcePoint" />
            <mxPoint x="120" y="999" as="targetPoint" />
          </mxGeometry>
        </mxCell>
        <mxCell id="6vAwja2DdDHT2TAZFSRR-289" value="" style="endArrow=none;html=1;fillColor=none;" edge="1" parent="1">
          <mxGeometry width="50" height="50" relative="1" as="geometry">
            <mxPoint x="120" y="999" as="sourcePoint" />
            <mxPoint x="120" y="999" as="targetPoint" />
          </mxGeometry>
        </mxCell>
        <mxCell id="6vAwja2DdDHT2TAZFSRR-290" value="" style="endArrow=none;html=1;fillColor=none;" edge="1" parent="1">
          <mxGeometry width="50" height="50" relative="1" as="geometry">
            <mxPoint x="160" y="1039" as="sourcePoint" />
            <mxPoint x="160" y="999" as="targetPoint" />
          </mxGeometry>
        </mxCell>
        <mxCell id="6vAwja2DdDHT2TAZFSRR-291" value="" style="endArrow=none;html=1;fillColor=none;" edge="1" parent="1">
          <mxGeometry width="50" height="50" relative="1" as="geometry">
            <mxPoint x="200" y="1039" as="sourcePoint" />
            <mxPoint x="200" y="999" as="targetPoint" />
          </mxGeometry>
        </mxCell>
        <mxCell id="6vAwja2DdDHT2TAZFSRR-293" value="" style="endArrow=none;html=1;fillColor=none;" edge="1" parent="1">
          <mxGeometry width="50" height="50" relative="1" as="geometry">
            <mxPoint x="80" y="1039" as="sourcePoint" />
            <mxPoint x="80" y="999" as="targetPoint" />
          </mxGeometry>
        </mxCell>
        <mxCell id="6vAwja2DdDHT2TAZFSRR-294" value="" style="endArrow=none;html=1;fillColor=#FF8000;" edge="1" parent="1">
          <mxGeometry width="50" height="50" relative="1" as="geometry">
            <mxPoint x="400" y="790" as="sourcePoint" />
            <mxPoint x="400" y="790" as="targetPoint" />
          </mxGeometry>
        </mxCell>
        <mxCell id="6vAwja2DdDHT2TAZFSRR-295" value="" style="endArrow=none;html=1;fillColor=#FF8000;" edge="1" parent="1">
          <mxGeometry width="50" height="50" relative="1" as="geometry">
            <mxPoint x="280" y="790" as="sourcePoint" />
            <mxPoint x="280" y="790" as="targetPoint" />
          </mxGeometry>
        </mxCell>
        <mxCell id="6vAwja2DdDHT2TAZFSRR-297" value="" style="endArrow=none;html=1;fillColor=#FF8000;" edge="1" parent="1">
          <mxGeometry width="50" height="50" relative="1" as="geometry">
            <mxPoint x="380" y="790" as="sourcePoint" />
            <mxPoint x="380" y="790" as="targetPoint" />
          </mxGeometry>
        </mxCell>
        <mxCell id="6vAwja2DdDHT2TAZFSRR-298" value="" style="endArrow=none;html=1;fillColor=none;" edge="1" parent="1">
          <mxGeometry width="50" height="50" relative="1" as="geometry">
            <mxPoint x="100" y="1039" as="sourcePoint" />
            <mxPoint x="100" y="999" as="targetPoint" />
          </mxGeometry>
        </mxCell>
        <mxCell id="6vAwja2DdDHT2TAZFSRR-299" value="" style="rounded=0;whiteSpace=wrap;html=1;fillColor=#61FF05;" vertex="1" parent="1">
          <mxGeometry x="480" y="999" width="220" height="40" as="geometry" />
        </mxCell>
        <mxCell id="6vAwja2DdDHT2TAZFSRR-300" value="" style="rounded=0;whiteSpace=wrap;html=1;fillColor=#FF2212;" vertex="1" parent="1">
          <mxGeometry x="260" y="999" width="100" height="40" as="geometry" />
        </mxCell>
        <mxCell id="6vAwja2DdDHT2TAZFSRR-301" value="" style="endArrow=none;html=1;fillColor=#FF2212;" edge="1" parent="1" source="6vAwja2DdDHT2TAZFSRR-300">
          <mxGeometry width="50" height="50" relative="1" as="geometry">
            <mxPoint x="320" y="1039" as="sourcePoint" />
            <mxPoint x="320" y="999" as="targetPoint" />
          </mxGeometry>
        </mxCell>
        <mxCell id="6vAwja2DdDHT2TAZFSRR-302" value="" style="endArrow=none;html=1;fillColor=#FF2212;" edge="1" parent="1">
          <mxGeometry width="50" height="50" relative="1" as="geometry">
            <mxPoint x="280" y="1039" as="sourcePoint" />
            <mxPoint x="280" y="999" as="targetPoint" />
          </mxGeometry>
        </mxCell>
        <mxCell id="6vAwja2DdDHT2TAZFSRR-303" value="" style="endArrow=none;html=1;fillColor=#03FF3D;" edge="1" parent="1">
          <mxGeometry width="50" height="50" relative="1" as="geometry">
            <mxPoint x="660" y="1039" as="sourcePoint" />
            <mxPoint x="660" y="999" as="targetPoint" />
          </mxGeometry>
        </mxCell>
        <mxCell id="6vAwja2DdDHT2TAZFSRR-304" value="" style="endArrow=none;html=1;fillColor=#03FF3D;" edge="1" parent="1">
          <mxGeometry width="50" height="50" relative="1" as="geometry">
            <mxPoint x="680" y="1039" as="sourcePoint" />
            <mxPoint x="680" y="999" as="targetPoint" />
            <Array as="points">
              <mxPoint x="680" y="1019" />
            </Array>
          </mxGeometry>
        </mxCell>
        <mxCell id="6vAwja2DdDHT2TAZFSRR-305" value="" style="endArrow=none;html=1;fillColor=#FF2212;" edge="1" parent="1">
          <mxGeometry width="50" height="50" relative="1" as="geometry">
            <mxPoint x="300" y="1039" as="sourcePoint" />
            <mxPoint x="300" y="999" as="targetPoint" />
          </mxGeometry>
        </mxCell>
        <mxCell id="6vAwja2DdDHT2TAZFSRR-306" value="" style="endArrow=none;html=1;fillColor=#03FF3D;" edge="1" parent="1" source="6vAwja2DdDHT2TAZFSRR-299">
          <mxGeometry width="50" height="50" relative="1" as="geometry">
            <mxPoint x="540" y="1039" as="sourcePoint" />
            <mxPoint x="540" y="999" as="targetPoint" />
          </mxGeometry>
        </mxCell>
        <mxCell id="6vAwja2DdDHT2TAZFSRR-307" value="" style="endArrow=none;html=1;fillColor=#03FF3D;" edge="1" parent="1">
          <mxGeometry width="50" height="50" relative="1" as="geometry">
            <mxPoint x="580" y="1039" as="sourcePoint" />
            <mxPoint x="580" y="999" as="targetPoint" />
          </mxGeometry>
        </mxCell>
        <mxCell id="6vAwja2DdDHT2TAZFSRR-308" value="" style="endArrow=none;html=1;fillColor=#03FF3D;" edge="1" parent="1">
          <mxGeometry width="50" height="50" relative="1" as="geometry">
            <mxPoint x="620" y="1039" as="sourcePoint" />
            <mxPoint x="620" y="999" as="targetPoint" />
          </mxGeometry>
        </mxCell>
        <mxCell id="6vAwja2DdDHT2TAZFSRR-309" value="" style="endArrow=none;html=1;fillColor=#FF2212;" edge="1" parent="1">
          <mxGeometry width="50" height="50" relative="1" as="geometry">
            <mxPoint x="320" y="1039" as="sourcePoint" />
            <mxPoint x="320" y="999" as="targetPoint" />
          </mxGeometry>
        </mxCell>
        <mxCell id="6vAwja2DdDHT2TAZFSRR-310" value="" style="endArrow=none;html=1;fillColor=#03FF3D;" edge="1" parent="1">
          <mxGeometry width="50" height="50" relative="1" as="geometry">
            <mxPoint x="500" y="1039" as="sourcePoint" />
            <mxPoint x="500" y="999" as="targetPoint" />
          </mxGeometry>
        </mxCell>
        <mxCell id="6vAwja2DdDHT2TAZFSRR-311" value="" style="endArrow=none;html=1;fillColor=#03FF3D;" edge="1" parent="1">
          <mxGeometry width="50" height="50" relative="1" as="geometry">
            <mxPoint x="560" y="1039" as="sourcePoint" />
            <mxPoint x="560" y="999" as="targetPoint" />
          </mxGeometry>
        </mxCell>
        <mxCell id="6vAwja2DdDHT2TAZFSRR-312" value="" style="endArrow=none;html=1;fillColor=#03FF3D;" edge="1" parent="1">
          <mxGeometry width="50" height="50" relative="1" as="geometry">
            <mxPoint x="560" y="999" as="sourcePoint" />
            <mxPoint x="560" y="999" as="targetPoint" />
          </mxGeometry>
        </mxCell>
        <mxCell id="6vAwja2DdDHT2TAZFSRR-313" value="" style="endArrow=none;html=1;fillColor=#03FF3D;" edge="1" parent="1">
          <mxGeometry width="50" height="50" relative="1" as="geometry">
            <mxPoint x="600" y="1039" as="sourcePoint" />
            <mxPoint x="600" y="999" as="targetPoint" />
          </mxGeometry>
        </mxCell>
        <mxCell id="6vAwja2DdDHT2TAZFSRR-314" value="" style="endArrow=none;html=1;fillColor=#03FF3D;" edge="1" parent="1">
          <mxGeometry width="50" height="50" relative="1" as="geometry">
            <mxPoint x="640" y="1039" as="sourcePoint" />
            <mxPoint x="640" y="999" as="targetPoint" />
          </mxGeometry>
        </mxCell>
        <mxCell id="6vAwja2DdDHT2TAZFSRR-315" value="" style="endArrow=none;html=1;fillColor=#FF2212;" edge="1" parent="1">
          <mxGeometry width="50" height="50" relative="1" as="geometry">
            <mxPoint x="360" y="1039" as="sourcePoint" />
            <mxPoint x="360" y="999" as="targetPoint" />
          </mxGeometry>
        </mxCell>
        <mxCell id="6vAwja2DdDHT2TAZFSRR-316" value="" style="endArrow=none;html=1;fillColor=#03FF3D;" edge="1" parent="1">
          <mxGeometry width="50" height="50" relative="1" as="geometry">
            <mxPoint x="520" y="1039" as="sourcePoint" />
            <mxPoint x="520" y="999" as="targetPoint" />
          </mxGeometry>
        </mxCell>
        <mxCell id="6vAwja2DdDHT2TAZFSRR-317" value="" style="endArrow=none;html=1;fillColor=#03FF3D;" edge="1" parent="1">
          <mxGeometry width="50" height="50" relative="1" as="geometry">
            <mxPoint x="560" y="1039" as="sourcePoint" />
            <mxPoint x="560" y="1039" as="targetPoint" />
          </mxGeometry>
        </mxCell>
        <mxCell id="6vAwja2DdDHT2TAZFSRR-318" value="" style="endArrow=none;html=1;fillColor=#FF2212;" edge="1" parent="1" target="6vAwja2DdDHT2TAZFSRR-300">
          <mxGeometry width="50" height="50" relative="1" as="geometry">
            <mxPoint x="320" y="1039" as="sourcePoint" />
            <mxPoint x="320" y="999" as="targetPoint" />
          </mxGeometry>
        </mxCell>
        <mxCell id="6vAwja2DdDHT2TAZFSRR-319" value="" style="endArrow=none;html=1;fillColor=#FF2212;" edge="1" parent="1">
          <mxGeometry width="50" height="50" relative="1" as="geometry">
            <mxPoint x="340" y="1039" as="sourcePoint" />
            <mxPoint x="340" y="999" as="targetPoint" />
          </mxGeometry>
        </mxCell>
        <mxCell id="6vAwja2DdDHT2TAZFSRR-320" value="" style="endArrow=none;html=1;fillColor=#03FF3D;" edge="1" parent="1" target="6vAwja2DdDHT2TAZFSRR-299">
          <mxGeometry width="50" height="50" relative="1" as="geometry">
            <mxPoint x="540" y="1039" as="sourcePoint" />
            <mxPoint x="540" y="999" as="targetPoint" />
          </mxGeometry>
        </mxCell>
        <mxCell id="6vAwja2DdDHT2TAZFSRR-321" value="" style="endArrow=none;html=1;fillColor=#03FF3D;" edge="1" parent="1">
          <mxGeometry width="50" height="50" relative="1" as="geometry">
            <mxPoint x="540" y="1039" as="sourcePoint" />
            <mxPoint x="540" y="999" as="targetPoint" />
          </mxGeometry>
        </mxCell>
        <mxCell id="6vAwja2DdDHT2TAZFSRR-323" value="" style="rounded=0;whiteSpace=wrap;html=1;fillColor=#FF8000;" vertex="1" parent="1">
          <mxGeometry x="330" y="760" width="220" height="40" as="geometry" />
        </mxCell>
        <mxCell id="6vAwja2DdDHT2TAZFSRR-324" value="" style="rounded=0;whiteSpace=wrap;html=1;fillColor=#FF8000;" vertex="1" parent="1">
          <mxGeometry x="230" y="760" width="100" height="40" as="geometry" />
        </mxCell>
        <mxCell id="6vAwja2DdDHT2TAZFSRR-325" value="" style="endArrow=none;html=1;fillColor=#FF8000;" edge="1" parent="1" source="6vAwja2DdDHT2TAZFSRR-324">
          <mxGeometry width="50" height="50" relative="1" as="geometry">
            <mxPoint x="290" y="800" as="sourcePoint" />
            <mxPoint x="290" y="760" as="targetPoint" />
          </mxGeometry>
        </mxCell>
        <mxCell id="6vAwja2DdDHT2TAZFSRR-326" value="" style="endArrow=none;html=1;fillColor=#FF8000;" edge="1" parent="1">
          <mxGeometry width="50" height="50" relative="1" as="geometry">
            <mxPoint x="250" y="800" as="sourcePoint" />
            <mxPoint x="250" y="760" as="targetPoint" />
          </mxGeometry>
        </mxCell>
        <mxCell id="6vAwja2DdDHT2TAZFSRR-327" value="" style="endArrow=none;html=1;fillColor=#FF8000;" edge="1" parent="1">
          <mxGeometry width="50" height="50" relative="1" as="geometry">
            <mxPoint x="510" y="800" as="sourcePoint" />
            <mxPoint x="510" y="760" as="targetPoint" />
          </mxGeometry>
        </mxCell>
        <mxCell id="6vAwja2DdDHT2TAZFSRR-328" value="" style="endArrow=none;html=1;fillColor=#FF8000;" edge="1" parent="1">
          <mxGeometry width="50" height="50" relative="1" as="geometry">
            <mxPoint x="530" y="800" as="sourcePoint" />
            <mxPoint x="530" y="760" as="targetPoint" />
            <Array as="points">
              <mxPoint x="530" y="780" />
            </Array>
          </mxGeometry>
        </mxCell>
        <mxCell id="6vAwja2DdDHT2TAZFSRR-329" value="" style="endArrow=none;html=1;fillColor=#FF8000;" edge="1" parent="1">
          <mxGeometry width="50" height="50" relative="1" as="geometry">
            <mxPoint x="270" y="800" as="sourcePoint" />
            <mxPoint x="270" y="760" as="targetPoint" />
          </mxGeometry>
        </mxCell>
        <mxCell id="6vAwja2DdDHT2TAZFSRR-330" value="" style="endArrow=none;html=1;fillColor=#FF8000;" edge="1" parent="1" source="6vAwja2DdDHT2TAZFSRR-323">
          <mxGeometry width="50" height="50" relative="1" as="geometry">
            <mxPoint x="390" y="800" as="sourcePoint" />
            <mxPoint x="390" y="760" as="targetPoint" />
          </mxGeometry>
        </mxCell>
        <mxCell id="6vAwja2DdDHT2TAZFSRR-331" value="" style="endArrow=none;html=1;fillColor=#FF8000;" edge="1" parent="1">
          <mxGeometry width="50" height="50" relative="1" as="geometry">
            <mxPoint x="430" y="800" as="sourcePoint" />
            <mxPoint x="430" y="760" as="targetPoint" />
          </mxGeometry>
        </mxCell>
        <mxCell id="6vAwja2DdDHT2TAZFSRR-332" value="" style="endArrow=none;html=1;fillColor=#FF8000;" edge="1" parent="1">
          <mxGeometry width="50" height="50" relative="1" as="geometry">
            <mxPoint x="470" y="800" as="sourcePoint" />
            <mxPoint x="470" y="760" as="targetPoint" />
          </mxGeometry>
        </mxCell>
        <mxCell id="6vAwja2DdDHT2TAZFSRR-333" value="" style="endArrow=none;html=1;fillColor=#FF8000;" edge="1" parent="1">
          <mxGeometry width="50" height="50" relative="1" as="geometry">
            <mxPoint x="290" y="800" as="sourcePoint" />
            <mxPoint x="290" y="760" as="targetPoint" />
          </mxGeometry>
        </mxCell>
        <mxCell id="6vAwja2DdDHT2TAZFSRR-334" value="" style="endArrow=none;html=1;fillColor=#FF8000;" edge="1" parent="1">
          <mxGeometry width="50" height="50" relative="1" as="geometry">
            <mxPoint x="350" y="800" as="sourcePoint" />
            <mxPoint x="350" y="760" as="targetPoint" />
          </mxGeometry>
        </mxCell>
        <mxCell id="6vAwja2DdDHT2TAZFSRR-335" value="" style="endArrow=none;html=1;fillColor=#FF8000;" edge="1" parent="1">
          <mxGeometry width="50" height="50" relative="1" as="geometry">
            <mxPoint x="410" y="800" as="sourcePoint" />
            <mxPoint x="410" y="760" as="targetPoint" />
          </mxGeometry>
        </mxCell>
        <mxCell id="6vAwja2DdDHT2TAZFSRR-336" value="" style="endArrow=none;html=1;fillColor=#FF8000;" edge="1" parent="1">
          <mxGeometry width="50" height="50" relative="1" as="geometry">
            <mxPoint x="410" y="760" as="sourcePoint" />
            <mxPoint x="410" y="760" as="targetPoint" />
          </mxGeometry>
        </mxCell>
        <mxCell id="6vAwja2DdDHT2TAZFSRR-337" value="" style="endArrow=none;html=1;fillColor=#FF8000;" edge="1" parent="1">
          <mxGeometry width="50" height="50" relative="1" as="geometry">
            <mxPoint x="450" y="800" as="sourcePoint" />
            <mxPoint x="450" y="760" as="targetPoint" />
          </mxGeometry>
        </mxCell>
        <mxCell id="6vAwja2DdDHT2TAZFSRR-338" value="" style="endArrow=none;html=1;fillColor=#FF8000;" edge="1" parent="1">
          <mxGeometry width="50" height="50" relative="1" as="geometry">
            <mxPoint x="490" y="800" as="sourcePoint" />
            <mxPoint x="490" y="760" as="targetPoint" />
          </mxGeometry>
        </mxCell>
        <mxCell id="6vAwja2DdDHT2TAZFSRR-339" value="" style="endArrow=none;html=1;fillColor=#FF8000;" edge="1" parent="1">
          <mxGeometry width="50" height="50" relative="1" as="geometry">
            <mxPoint x="330" y="800" as="sourcePoint" />
            <mxPoint x="330" y="760" as="targetPoint" />
          </mxGeometry>
        </mxCell>
        <mxCell id="6vAwja2DdDHT2TAZFSRR-340" value="" style="endArrow=none;html=1;fillColor=#FF8000;" edge="1" parent="1">
          <mxGeometry width="50" height="50" relative="1" as="geometry">
            <mxPoint x="370" y="800" as="sourcePoint" />
            <mxPoint x="370" y="760" as="targetPoint" />
          </mxGeometry>
        </mxCell>
        <mxCell id="6vAwja2DdDHT2TAZFSRR-341" value="" style="endArrow=none;html=1;fillColor=#FF8000;" edge="1" parent="1">
          <mxGeometry width="50" height="50" relative="1" as="geometry">
            <mxPoint x="410" y="800" as="sourcePoint" />
            <mxPoint x="410" y="800" as="targetPoint" />
          </mxGeometry>
        </mxCell>
        <mxCell id="6vAwja2DdDHT2TAZFSRR-342" value="" style="endArrow=none;html=1;fillColor=#FF8000;" edge="1" parent="1" target="6vAwja2DdDHT2TAZFSRR-324">
          <mxGeometry width="50" height="50" relative="1" as="geometry">
            <mxPoint x="290" y="800" as="sourcePoint" />
            <mxPoint x="290" y="760" as="targetPoint" />
          </mxGeometry>
        </mxCell>
        <mxCell id="6vAwja2DdDHT2TAZFSRR-343" value="" style="endArrow=none;html=1;fillColor=#FF8000;" edge="1" parent="1">
          <mxGeometry width="50" height="50" relative="1" as="geometry">
            <mxPoint x="310" y="800" as="sourcePoint" />
            <mxPoint x="310" y="760" as="targetPoint" />
          </mxGeometry>
        </mxCell>
        <mxCell id="6vAwja2DdDHT2TAZFSRR-344" value="" style="endArrow=none;html=1;fillColor=#FF8000;" edge="1" parent="1" target="6vAwja2DdDHT2TAZFSRR-323">
          <mxGeometry width="50" height="50" relative="1" as="geometry">
            <mxPoint x="390" y="800" as="sourcePoint" />
            <mxPoint x="390" y="760" as="targetPoint" />
          </mxGeometry>
        </mxCell>
        <mxCell id="6vAwja2DdDHT2TAZFSRR-345" value="" style="endArrow=none;html=1;fillColor=#FF8000;" edge="1" parent="1">
          <mxGeometry width="50" height="50" relative="1" as="geometry">
            <mxPoint x="390" y="800" as="sourcePoint" />
            <mxPoint x="390" y="760" as="targetPoint" />
          </mxGeometry>
        </mxCell>
        <mxCell id="6vAwja2DdDHT2TAZFSRR-346" value="" style="endArrow=classic;html=1;strokeColor=#FF4529;fillColor=#FF8000;" edge="1" parent="1">
          <mxGeometry width="50" height="50" relative="1" as="geometry">
            <mxPoint x="480" y="658.5" as="sourcePoint" />
            <mxPoint x="360" y="658.5" as="targetPoint" />
          </mxGeometry>
        </mxCell>
        <mxCell id="6vAwja2DdDHT2TAZFSRR-347" value="" style="endArrow=none;html=1;fillColor=none;" edge="1" parent="1">
          <mxGeometry width="50" height="50" relative="1" as="geometry">
            <mxPoint x="749" y="1029" as="sourcePoint" />
            <mxPoint x="749" y="1029" as="targetPoint" />
          </mxGeometry>
        </mxCell>
        <mxCell id="6vAwja2DdDHT2TAZFSRR-348" value="" style="rounded=0;whiteSpace=wrap;html=1;fillColor=none;" vertex="1" parent="1">
          <mxGeometry x="699" y="999" width="100" height="40" as="geometry" />
        </mxCell>
        <mxCell id="6vAwja2DdDHT2TAZFSRR-349" value="" style="endArrow=none;html=1;fillColor=none;" edge="1" parent="1" source="6vAwja2DdDHT2TAZFSRR-348">
          <mxGeometry width="50" height="50" relative="1" as="geometry">
            <mxPoint x="759" y="1039" as="sourcePoint" />
            <mxPoint x="759" y="999" as="targetPoint" />
          </mxGeometry>
        </mxCell>
        <mxCell id="6vAwja2DdDHT2TAZFSRR-350" value="" style="endArrow=none;html=1;fillColor=none;" edge="1" parent="1">
          <mxGeometry width="50" height="50" relative="1" as="geometry">
            <mxPoint x="719" y="1039" as="sourcePoint" />
            <mxPoint x="719" y="999" as="targetPoint" />
          </mxGeometry>
        </mxCell>
        <mxCell id="6vAwja2DdDHT2TAZFSRR-351" value="" style="endArrow=none;html=1;fillColor=none;" edge="1" parent="1">
          <mxGeometry width="50" height="50" relative="1" as="geometry">
            <mxPoint x="739" y="1039" as="sourcePoint" />
            <mxPoint x="739" y="999" as="targetPoint" />
          </mxGeometry>
        </mxCell>
        <mxCell id="6vAwja2DdDHT2TAZFSRR-352" value="" style="endArrow=none;html=1;fillColor=none;" edge="1" parent="1">
          <mxGeometry width="50" height="50" relative="1" as="geometry">
            <mxPoint x="759" y="1039" as="sourcePoint" />
            <mxPoint x="759" y="999" as="targetPoint" />
          </mxGeometry>
        </mxCell>
        <mxCell id="6vAwja2DdDHT2TAZFSRR-353" value="" style="endArrow=none;html=1;fillColor=none;" edge="1" parent="1">
          <mxGeometry width="50" height="50" relative="1" as="geometry">
            <mxPoint x="799" y="1039" as="sourcePoint" />
            <mxPoint x="799" y="999" as="targetPoint" />
          </mxGeometry>
        </mxCell>
        <mxCell id="6vAwja2DdDHT2TAZFSRR-354" value="" style="endArrow=none;html=1;fillColor=none;" edge="1" parent="1" target="6vAwja2DdDHT2TAZFSRR-348">
          <mxGeometry width="50" height="50" relative="1" as="geometry">
            <mxPoint x="759" y="1039" as="sourcePoint" />
            <mxPoint x="759" y="999" as="targetPoint" />
          </mxGeometry>
        </mxCell>
        <mxCell id="6vAwja2DdDHT2TAZFSRR-355" value="" style="endArrow=none;html=1;fillColor=none;" edge="1" parent="1">
          <mxGeometry width="50" height="50" relative="1" as="geometry">
            <mxPoint x="779" y="1039" as="sourcePoint" />
            <mxPoint x="779" y="999" as="targetPoint" />
          </mxGeometry>
        </mxCell>
        <mxCell id="6vAwja2DdDHT2TAZFSRR-357" value="" style="endArrow=classic;html=1;strokeColor=#FF4529;fillColor=#61FF05;exitX=0.091;exitY=1;exitDx=0;exitDy=0;exitPerimeter=0;" edge="1" parent="1">
          <mxGeometry width="50" height="50" relative="1" as="geometry">
            <mxPoint x="320.02" y="799" as="sourcePoint" />
            <mxPoint x="160" y="999" as="targetPoint" />
            <Array as="points">
              <mxPoint x="320" y="919" />
              <mxPoint x="160" y="919" />
            </Array>
          </mxGeometry>
        </mxCell>
        <mxCell id="6vAwja2DdDHT2TAZFSRR-358" value="" style="endArrow=none;html=1;fillColor=#03FF3D;" edge="1" parent="1">
          <mxGeometry width="50" height="50" relative="1" as="geometry">
            <mxPoint x="550" y="1389" as="sourcePoint" />
            <mxPoint x="550" y="1389" as="targetPoint" />
          </mxGeometry>
        </mxCell>
        <mxCell id="6vAwja2DdDHT2TAZFSRR-359" value="" style="endArrow=none;html=1;fillColor=#663300;" edge="1" parent="1">
          <mxGeometry width="50" height="50" relative="1" as="geometry">
            <mxPoint x="310" y="1389" as="sourcePoint" />
            <mxPoint x="310" y="1389" as="targetPoint" />
          </mxGeometry>
        </mxCell>
        <mxCell id="6vAwja2DdDHT2TAZFSRR-360" value="" style="endArrow=none;html=1;fillColor=#03FF3D;" edge="1" parent="1">
          <mxGeometry width="50" height="50" relative="1" as="geometry">
            <mxPoint x="530" y="1389" as="sourcePoint" />
            <mxPoint x="530" y="1389" as="targetPoint" />
          </mxGeometry>
        </mxCell>
        <mxCell id="6vAwja2DdDHT2TAZFSRR-361" value="" style="rounded=0;whiteSpace=wrap;html=1;fillColor=#FFFF66;" vertex="1" parent="1">
          <mxGeometry x="40" y="1359" width="220" height="40" as="geometry" />
        </mxCell>
        <mxCell id="6vAwja2DdDHT2TAZFSRR-362" value="" style="endArrow=none;html=1;fillColor=#FFFF66;" edge="1" parent="1">
          <mxGeometry width="50" height="50" relative="1" as="geometry">
            <mxPoint x="220" y="1399" as="sourcePoint" />
            <mxPoint x="220" y="1359" as="targetPoint" />
          </mxGeometry>
        </mxCell>
        <mxCell id="6vAwja2DdDHT2TAZFSRR-363" value="" style="endArrow=none;html=1;fillColor=#663300;" edge="1" parent="1">
          <mxGeometry width="50" height="50" relative="1" as="geometry">
            <mxPoint x="240" y="1399" as="sourcePoint" />
            <mxPoint x="240" y="1359" as="targetPoint" />
            <Array as="points">
              <mxPoint x="240" y="1379" />
            </Array>
          </mxGeometry>
        </mxCell>
        <mxCell id="6vAwja2DdDHT2TAZFSRR-364" value="" style="endArrow=none;html=1;fillColor=#FFFF66;" edge="1" parent="1" source="6vAwja2DdDHT2TAZFSRR-361">
          <mxGeometry width="50" height="50" relative="1" as="geometry">
            <mxPoint x="100" y="1399" as="sourcePoint" />
            <mxPoint x="100" y="1359" as="targetPoint" />
          </mxGeometry>
        </mxCell>
        <mxCell id="6vAwja2DdDHT2TAZFSRR-365" value="" style="endArrow=none;html=1;fillColor=#FFFF66;" edge="1" parent="1">
          <mxGeometry width="50" height="50" relative="1" as="geometry">
            <mxPoint x="140" y="1399" as="sourcePoint" />
            <mxPoint x="140" y="1359" as="targetPoint" />
          </mxGeometry>
        </mxCell>
        <mxCell id="6vAwja2DdDHT2TAZFSRR-366" value="" style="endArrow=none;html=1;fillColor=#FFFF66;" edge="1" parent="1">
          <mxGeometry width="50" height="50" relative="1" as="geometry">
            <mxPoint x="180" y="1399" as="sourcePoint" />
            <mxPoint x="180" y="1359" as="targetPoint" />
          </mxGeometry>
        </mxCell>
        <mxCell id="6vAwja2DdDHT2TAZFSRR-367" value="" style="endArrow=none;html=1;fillColor=#FFFF66;" edge="1" parent="1">
          <mxGeometry width="50" height="50" relative="1" as="geometry">
            <mxPoint x="60" y="1399" as="sourcePoint" />
            <mxPoint x="60" y="1359" as="targetPoint" />
          </mxGeometry>
        </mxCell>
        <mxCell id="6vAwja2DdDHT2TAZFSRR-368" value="" style="endArrow=none;html=1;fillColor=#FFFF66;" edge="1" parent="1">
          <mxGeometry width="50" height="50" relative="1" as="geometry">
            <mxPoint x="120" y="1399" as="sourcePoint" />
            <mxPoint x="120" y="1359" as="targetPoint" />
          </mxGeometry>
        </mxCell>
        <mxCell id="6vAwja2DdDHT2TAZFSRR-369" value="" style="endArrow=none;html=1;fillColor=#FFFF66;" edge="1" parent="1">
          <mxGeometry width="50" height="50" relative="1" as="geometry">
            <mxPoint x="120" y="1359" as="sourcePoint" />
            <mxPoint x="120" y="1359" as="targetPoint" />
          </mxGeometry>
        </mxCell>
        <mxCell id="6vAwja2DdDHT2TAZFSRR-370" value="" style="endArrow=none;html=1;fillColor=#FFFF66;" edge="1" parent="1">
          <mxGeometry width="50" height="50" relative="1" as="geometry">
            <mxPoint x="160" y="1399" as="sourcePoint" />
            <mxPoint x="160" y="1359" as="targetPoint" />
          </mxGeometry>
        </mxCell>
        <mxCell id="6vAwja2DdDHT2TAZFSRR-371" value="" style="endArrow=none;html=1;fillColor=#FFFF66;" edge="1" parent="1">
          <mxGeometry width="50" height="50" relative="1" as="geometry">
            <mxPoint x="200" y="1399" as="sourcePoint" />
            <mxPoint x="200" y="1359" as="targetPoint" />
          </mxGeometry>
        </mxCell>
        <mxCell id="6vAwja2DdDHT2TAZFSRR-372" value="" style="endArrow=none;html=1;fillColor=#FFFF66;" edge="1" parent="1">
          <mxGeometry width="50" height="50" relative="1" as="geometry">
            <mxPoint x="80" y="1399" as="sourcePoint" />
            <mxPoint x="80" y="1359" as="targetPoint" />
          </mxGeometry>
        </mxCell>
        <mxCell id="6vAwja2DdDHT2TAZFSRR-373" value="" style="endArrow=none;html=1;fillColor=#FF8000;" edge="1" parent="1">
          <mxGeometry width="50" height="50" relative="1" as="geometry">
            <mxPoint x="400" y="1150" as="sourcePoint" />
            <mxPoint x="400" y="1150" as="targetPoint" />
          </mxGeometry>
        </mxCell>
        <mxCell id="6vAwja2DdDHT2TAZFSRR-374" value="" style="endArrow=none;html=1;fillColor=#FF8000;" edge="1" parent="1">
          <mxGeometry width="50" height="50" relative="1" as="geometry">
            <mxPoint x="280" y="1150" as="sourcePoint" />
            <mxPoint x="280" y="1150" as="targetPoint" />
          </mxGeometry>
        </mxCell>
        <mxCell id="6vAwja2DdDHT2TAZFSRR-375" value="" style="endArrow=none;html=1;fillColor=#FF8000;" edge="1" parent="1">
          <mxGeometry width="50" height="50" relative="1" as="geometry">
            <mxPoint x="380" y="1150" as="sourcePoint" />
            <mxPoint x="380" y="1150" as="targetPoint" />
          </mxGeometry>
        </mxCell>
        <mxCell id="6vAwja2DdDHT2TAZFSRR-376" value="" style="endArrow=none;html=1;fillColor=#FFFF66;" edge="1" parent="1">
          <mxGeometry width="50" height="50" relative="1" as="geometry">
            <mxPoint x="100" y="1399" as="sourcePoint" />
            <mxPoint x="100" y="1359" as="targetPoint" />
          </mxGeometry>
        </mxCell>
        <mxCell id="6vAwja2DdDHT2TAZFSRR-377" value="" style="rounded=0;whiteSpace=wrap;html=1;fillColor=#61FF05;" vertex="1" parent="1">
          <mxGeometry x="480" y="1359" width="220" height="40" as="geometry" />
        </mxCell>
        <mxCell id="6vAwja2DdDHT2TAZFSRR-378" value="" style="rounded=0;whiteSpace=wrap;html=1;fillColor=#663300;" vertex="1" parent="1">
          <mxGeometry x="260" y="1359" width="100" height="40" as="geometry" />
        </mxCell>
        <mxCell id="6vAwja2DdDHT2TAZFSRR-379" value="" style="endArrow=none;html=1;fillColor=#663300;" edge="1" parent="1" source="6vAwja2DdDHT2TAZFSRR-378">
          <mxGeometry width="50" height="50" relative="1" as="geometry">
            <mxPoint x="320" y="1399" as="sourcePoint" />
            <mxPoint x="320" y="1359" as="targetPoint" />
          </mxGeometry>
        </mxCell>
        <mxCell id="6vAwja2DdDHT2TAZFSRR-380" value="" style="endArrow=none;html=1;fillColor=#663300;" edge="1" parent="1">
          <mxGeometry width="50" height="50" relative="1" as="geometry">
            <mxPoint x="280" y="1399" as="sourcePoint" />
            <mxPoint x="280" y="1359" as="targetPoint" />
          </mxGeometry>
        </mxCell>
        <mxCell id="6vAwja2DdDHT2TAZFSRR-381" value="" style="endArrow=none;html=1;fillColor=#03FF3D;" edge="1" parent="1">
          <mxGeometry width="50" height="50" relative="1" as="geometry">
            <mxPoint x="660" y="1399" as="sourcePoint" />
            <mxPoint x="660" y="1359" as="targetPoint" />
          </mxGeometry>
        </mxCell>
        <mxCell id="6vAwja2DdDHT2TAZFSRR-382" value="" style="endArrow=none;html=1;fillColor=#03FF3D;" edge="1" parent="1">
          <mxGeometry width="50" height="50" relative="1" as="geometry">
            <mxPoint x="680" y="1399" as="sourcePoint" />
            <mxPoint x="680" y="1359" as="targetPoint" />
            <Array as="points">
              <mxPoint x="680" y="1379" />
            </Array>
          </mxGeometry>
        </mxCell>
        <mxCell id="6vAwja2DdDHT2TAZFSRR-383" value="" style="endArrow=none;html=1;fillColor=#663300;" edge="1" parent="1">
          <mxGeometry width="50" height="50" relative="1" as="geometry">
            <mxPoint x="300" y="1399" as="sourcePoint" />
            <mxPoint x="300" y="1359" as="targetPoint" />
          </mxGeometry>
        </mxCell>
        <mxCell id="6vAwja2DdDHT2TAZFSRR-384" value="" style="endArrow=none;html=1;fillColor=#03FF3D;" edge="1" parent="1" source="6vAwja2DdDHT2TAZFSRR-377">
          <mxGeometry width="50" height="50" relative="1" as="geometry">
            <mxPoint x="540" y="1399" as="sourcePoint" />
            <mxPoint x="540" y="1359" as="targetPoint" />
          </mxGeometry>
        </mxCell>
        <mxCell id="6vAwja2DdDHT2TAZFSRR-385" value="" style="endArrow=none;html=1;fillColor=#03FF3D;" edge="1" parent="1">
          <mxGeometry width="50" height="50" relative="1" as="geometry">
            <mxPoint x="580" y="1399" as="sourcePoint" />
            <mxPoint x="580" y="1359" as="targetPoint" />
          </mxGeometry>
        </mxCell>
        <mxCell id="6vAwja2DdDHT2TAZFSRR-386" value="" style="endArrow=none;html=1;fillColor=#03FF3D;" edge="1" parent="1">
          <mxGeometry width="50" height="50" relative="1" as="geometry">
            <mxPoint x="620" y="1399" as="sourcePoint" />
            <mxPoint x="620" y="1359" as="targetPoint" />
          </mxGeometry>
        </mxCell>
        <mxCell id="6vAwja2DdDHT2TAZFSRR-387" value="" style="endArrow=none;html=1;fillColor=#663300;" edge="1" parent="1">
          <mxGeometry width="50" height="50" relative="1" as="geometry">
            <mxPoint x="320" y="1399" as="sourcePoint" />
            <mxPoint x="320" y="1359" as="targetPoint" />
          </mxGeometry>
        </mxCell>
        <mxCell id="6vAwja2DdDHT2TAZFSRR-388" value="" style="endArrow=none;html=1;fillColor=#03FF3D;" edge="1" parent="1">
          <mxGeometry width="50" height="50" relative="1" as="geometry">
            <mxPoint x="500" y="1399" as="sourcePoint" />
            <mxPoint x="500" y="1359" as="targetPoint" />
          </mxGeometry>
        </mxCell>
        <mxCell id="6vAwja2DdDHT2TAZFSRR-389" value="" style="endArrow=none;html=1;fillColor=#03FF3D;" edge="1" parent="1">
          <mxGeometry width="50" height="50" relative="1" as="geometry">
            <mxPoint x="560" y="1399" as="sourcePoint" />
            <mxPoint x="560" y="1359" as="targetPoint" />
          </mxGeometry>
        </mxCell>
        <mxCell id="6vAwja2DdDHT2TAZFSRR-390" value="" style="endArrow=none;html=1;fillColor=#03FF3D;" edge="1" parent="1">
          <mxGeometry width="50" height="50" relative="1" as="geometry">
            <mxPoint x="560" y="1359" as="sourcePoint" />
            <mxPoint x="560" y="1359" as="targetPoint" />
          </mxGeometry>
        </mxCell>
        <mxCell id="6vAwja2DdDHT2TAZFSRR-391" value="" style="endArrow=none;html=1;fillColor=#03FF3D;" edge="1" parent="1">
          <mxGeometry width="50" height="50" relative="1" as="geometry">
            <mxPoint x="600" y="1399" as="sourcePoint" />
            <mxPoint x="600" y="1359" as="targetPoint" />
          </mxGeometry>
        </mxCell>
        <mxCell id="6vAwja2DdDHT2TAZFSRR-392" value="" style="endArrow=none;html=1;fillColor=#03FF3D;" edge="1" parent="1">
          <mxGeometry width="50" height="50" relative="1" as="geometry">
            <mxPoint x="640" y="1399" as="sourcePoint" />
            <mxPoint x="640" y="1359" as="targetPoint" />
          </mxGeometry>
        </mxCell>
        <mxCell id="6vAwja2DdDHT2TAZFSRR-393" value="" style="endArrow=none;html=1;fillColor=#663300;" edge="1" parent="1">
          <mxGeometry width="50" height="50" relative="1" as="geometry">
            <mxPoint x="360" y="1399" as="sourcePoint" />
            <mxPoint x="360" y="1359" as="targetPoint" />
          </mxGeometry>
        </mxCell>
        <mxCell id="6vAwja2DdDHT2TAZFSRR-394" value="" style="endArrow=none;html=1;fillColor=#03FF3D;" edge="1" parent="1">
          <mxGeometry width="50" height="50" relative="1" as="geometry">
            <mxPoint x="520" y="1399" as="sourcePoint" />
            <mxPoint x="520" y="1359" as="targetPoint" />
          </mxGeometry>
        </mxCell>
        <mxCell id="6vAwja2DdDHT2TAZFSRR-395" value="" style="endArrow=none;html=1;fillColor=#03FF3D;" edge="1" parent="1">
          <mxGeometry width="50" height="50" relative="1" as="geometry">
            <mxPoint x="560" y="1399" as="sourcePoint" />
            <mxPoint x="560" y="1399" as="targetPoint" />
          </mxGeometry>
        </mxCell>
        <mxCell id="6vAwja2DdDHT2TAZFSRR-396" value="" style="endArrow=none;html=1;fillColor=#663300;" edge="1" parent="1" target="6vAwja2DdDHT2TAZFSRR-378">
          <mxGeometry width="50" height="50" relative="1" as="geometry">
            <mxPoint x="320" y="1399" as="sourcePoint" />
            <mxPoint x="320" y="1359" as="targetPoint" />
          </mxGeometry>
        </mxCell>
        <mxCell id="6vAwja2DdDHT2TAZFSRR-397" value="" style="endArrow=none;html=1;fillColor=#663300;" edge="1" parent="1">
          <mxGeometry width="50" height="50" relative="1" as="geometry">
            <mxPoint x="340" y="1399" as="sourcePoint" />
            <mxPoint x="340" y="1359" as="targetPoint" />
          </mxGeometry>
        </mxCell>
        <mxCell id="6vAwja2DdDHT2TAZFSRR-398" value="" style="endArrow=none;html=1;fillColor=#03FF3D;" edge="1" parent="1" target="6vAwja2DdDHT2TAZFSRR-377">
          <mxGeometry width="50" height="50" relative="1" as="geometry">
            <mxPoint x="540" y="1399" as="sourcePoint" />
            <mxPoint x="540" y="1359" as="targetPoint" />
          </mxGeometry>
        </mxCell>
        <mxCell id="6vAwja2DdDHT2TAZFSRR-399" value="" style="endArrow=none;html=1;fillColor=#03FF3D;" edge="1" parent="1">
          <mxGeometry width="50" height="50" relative="1" as="geometry">
            <mxPoint x="540" y="1399" as="sourcePoint" />
            <mxPoint x="540" y="1359" as="targetPoint" />
          </mxGeometry>
        </mxCell>
        <mxCell id="6vAwja2DdDHT2TAZFSRR-400" value="" style="rounded=0;whiteSpace=wrap;html=1;fillColor=#FF8000;" vertex="1" parent="1">
          <mxGeometry x="330" y="1120" width="220" height="40" as="geometry" />
        </mxCell>
        <mxCell id="6vAwja2DdDHT2TAZFSRR-401" value="" style="rounded=0;whiteSpace=wrap;html=1;fillColor=#FF8000;" vertex="1" parent="1">
          <mxGeometry x="230" y="1120" width="100" height="40" as="geometry" />
        </mxCell>
        <mxCell id="6vAwja2DdDHT2TAZFSRR-402" value="" style="endArrow=none;html=1;fillColor=#FF8000;" edge="1" parent="1" source="6vAwja2DdDHT2TAZFSRR-401">
          <mxGeometry width="50" height="50" relative="1" as="geometry">
            <mxPoint x="290" y="1160" as="sourcePoint" />
            <mxPoint x="290" y="1120" as="targetPoint" />
          </mxGeometry>
        </mxCell>
        <mxCell id="6vAwja2DdDHT2TAZFSRR-403" value="" style="endArrow=none;html=1;fillColor=#FF8000;" edge="1" parent="1">
          <mxGeometry width="50" height="50" relative="1" as="geometry">
            <mxPoint x="250" y="1160" as="sourcePoint" />
            <mxPoint x="250" y="1120" as="targetPoint" />
          </mxGeometry>
        </mxCell>
        <mxCell id="6vAwja2DdDHT2TAZFSRR-404" value="" style="endArrow=none;html=1;fillColor=#FF8000;" edge="1" parent="1">
          <mxGeometry width="50" height="50" relative="1" as="geometry">
            <mxPoint x="510" y="1160" as="sourcePoint" />
            <mxPoint x="510" y="1120" as="targetPoint" />
          </mxGeometry>
        </mxCell>
        <mxCell id="6vAwja2DdDHT2TAZFSRR-405" value="" style="endArrow=none;html=1;fillColor=#FF8000;" edge="1" parent="1">
          <mxGeometry width="50" height="50" relative="1" as="geometry">
            <mxPoint x="530" y="1160" as="sourcePoint" />
            <mxPoint x="530" y="1120" as="targetPoint" />
            <Array as="points">
              <mxPoint x="530" y="1140" />
            </Array>
          </mxGeometry>
        </mxCell>
        <mxCell id="6vAwja2DdDHT2TAZFSRR-406" value="" style="endArrow=none;html=1;fillColor=#FF8000;" edge="1" parent="1">
          <mxGeometry width="50" height="50" relative="1" as="geometry">
            <mxPoint x="270" y="1160" as="sourcePoint" />
            <mxPoint x="270" y="1120" as="targetPoint" />
          </mxGeometry>
        </mxCell>
        <mxCell id="6vAwja2DdDHT2TAZFSRR-407" value="" style="endArrow=none;html=1;fillColor=#FF8000;" edge="1" parent="1" source="6vAwja2DdDHT2TAZFSRR-400">
          <mxGeometry width="50" height="50" relative="1" as="geometry">
            <mxPoint x="390" y="1160" as="sourcePoint" />
            <mxPoint x="390" y="1120" as="targetPoint" />
          </mxGeometry>
        </mxCell>
        <mxCell id="6vAwja2DdDHT2TAZFSRR-408" value="" style="endArrow=none;html=1;fillColor=#FF8000;" edge="1" parent="1">
          <mxGeometry width="50" height="50" relative="1" as="geometry">
            <mxPoint x="430" y="1160" as="sourcePoint" />
            <mxPoint x="430" y="1120" as="targetPoint" />
          </mxGeometry>
        </mxCell>
        <mxCell id="6vAwja2DdDHT2TAZFSRR-409" value="" style="endArrow=none;html=1;fillColor=#FF8000;" edge="1" parent="1">
          <mxGeometry width="50" height="50" relative="1" as="geometry">
            <mxPoint x="470" y="1160" as="sourcePoint" />
            <mxPoint x="470" y="1120" as="targetPoint" />
          </mxGeometry>
        </mxCell>
        <mxCell id="6vAwja2DdDHT2TAZFSRR-410" value="" style="endArrow=none;html=1;fillColor=#FF8000;" edge="1" parent="1">
          <mxGeometry width="50" height="50" relative="1" as="geometry">
            <mxPoint x="290" y="1160" as="sourcePoint" />
            <mxPoint x="290" y="1120" as="targetPoint" />
          </mxGeometry>
        </mxCell>
        <mxCell id="6vAwja2DdDHT2TAZFSRR-411" value="" style="endArrow=none;html=1;fillColor=#FF8000;" edge="1" parent="1">
          <mxGeometry width="50" height="50" relative="1" as="geometry">
            <mxPoint x="350" y="1160" as="sourcePoint" />
            <mxPoint x="350" y="1120" as="targetPoint" />
          </mxGeometry>
        </mxCell>
        <mxCell id="6vAwja2DdDHT2TAZFSRR-412" value="" style="endArrow=none;html=1;fillColor=#FF8000;" edge="1" parent="1">
          <mxGeometry width="50" height="50" relative="1" as="geometry">
            <mxPoint x="410" y="1160" as="sourcePoint" />
            <mxPoint x="410" y="1120" as="targetPoint" />
          </mxGeometry>
        </mxCell>
        <mxCell id="6vAwja2DdDHT2TAZFSRR-413" value="" style="endArrow=none;html=1;fillColor=#FF8000;" edge="1" parent="1">
          <mxGeometry width="50" height="50" relative="1" as="geometry">
            <mxPoint x="410" y="1120" as="sourcePoint" />
            <mxPoint x="410" y="1120" as="targetPoint" />
          </mxGeometry>
        </mxCell>
        <mxCell id="6vAwja2DdDHT2TAZFSRR-414" value="" style="endArrow=none;html=1;fillColor=#FF8000;" edge="1" parent="1">
          <mxGeometry width="50" height="50" relative="1" as="geometry">
            <mxPoint x="450" y="1160" as="sourcePoint" />
            <mxPoint x="450" y="1120" as="targetPoint" />
          </mxGeometry>
        </mxCell>
        <mxCell id="6vAwja2DdDHT2TAZFSRR-415" value="" style="endArrow=none;html=1;fillColor=#FF8000;" edge="1" parent="1">
          <mxGeometry width="50" height="50" relative="1" as="geometry">
            <mxPoint x="490" y="1160" as="sourcePoint" />
            <mxPoint x="490" y="1120" as="targetPoint" />
          </mxGeometry>
        </mxCell>
        <mxCell id="6vAwja2DdDHT2TAZFSRR-416" value="" style="endArrow=none;html=1;fillColor=#FF8000;" edge="1" parent="1">
          <mxGeometry width="50" height="50" relative="1" as="geometry">
            <mxPoint x="330" y="1160" as="sourcePoint" />
            <mxPoint x="330" y="1120" as="targetPoint" />
          </mxGeometry>
        </mxCell>
        <mxCell id="6vAwja2DdDHT2TAZFSRR-417" value="" style="endArrow=none;html=1;fillColor=#FF8000;" edge="1" parent="1">
          <mxGeometry width="50" height="50" relative="1" as="geometry">
            <mxPoint x="370" y="1160" as="sourcePoint" />
            <mxPoint x="370" y="1120" as="targetPoint" />
          </mxGeometry>
        </mxCell>
        <mxCell id="6vAwja2DdDHT2TAZFSRR-418" value="" style="endArrow=none;html=1;fillColor=#FF8000;" edge="1" parent="1">
          <mxGeometry width="50" height="50" relative="1" as="geometry">
            <mxPoint x="410" y="1160" as="sourcePoint" />
            <mxPoint x="410" y="1160" as="targetPoint" />
          </mxGeometry>
        </mxCell>
        <mxCell id="6vAwja2DdDHT2TAZFSRR-419" value="" style="endArrow=none;html=1;fillColor=#FF8000;" edge="1" parent="1" target="6vAwja2DdDHT2TAZFSRR-401">
          <mxGeometry width="50" height="50" relative="1" as="geometry">
            <mxPoint x="290" y="1160" as="sourcePoint" />
            <mxPoint x="290" y="1120" as="targetPoint" />
          </mxGeometry>
        </mxCell>
        <mxCell id="6vAwja2DdDHT2TAZFSRR-420" value="" style="endArrow=none;html=1;fillColor=#FF8000;" edge="1" parent="1">
          <mxGeometry width="50" height="50" relative="1" as="geometry">
            <mxPoint x="310" y="1160" as="sourcePoint" />
            <mxPoint x="310" y="1120" as="targetPoint" />
          </mxGeometry>
        </mxCell>
        <mxCell id="6vAwja2DdDHT2TAZFSRR-421" value="" style="endArrow=none;html=1;fillColor=#FF8000;" edge="1" parent="1" target="6vAwja2DdDHT2TAZFSRR-400">
          <mxGeometry width="50" height="50" relative="1" as="geometry">
            <mxPoint x="390" y="1160" as="sourcePoint" />
            <mxPoint x="390" y="1120" as="targetPoint" />
          </mxGeometry>
        </mxCell>
        <mxCell id="6vAwja2DdDHT2TAZFSRR-422" value="" style="endArrow=none;html=1;fillColor=#FF8000;" edge="1" parent="1">
          <mxGeometry width="50" height="50" relative="1" as="geometry">
            <mxPoint x="390" y="1160" as="sourcePoint" />
            <mxPoint x="390" y="1120" as="targetPoint" />
          </mxGeometry>
        </mxCell>
        <mxCell id="6vAwja2DdDHT2TAZFSRR-423" value="" style="endArrow=none;html=1;fillColor=none;" edge="1" parent="1">
          <mxGeometry width="50" height="50" relative="1" as="geometry">
            <mxPoint x="749" y="1389" as="sourcePoint" />
            <mxPoint x="749" y="1389" as="targetPoint" />
          </mxGeometry>
        </mxCell>
        <mxCell id="6vAwja2DdDHT2TAZFSRR-424" value="" style="rounded=0;whiteSpace=wrap;html=1;fillColor=none;" vertex="1" parent="1">
          <mxGeometry x="699" y="1359" width="100" height="40" as="geometry" />
        </mxCell>
        <mxCell id="6vAwja2DdDHT2TAZFSRR-425" value="" style="endArrow=none;html=1;fillColor=none;" edge="1" parent="1" source="6vAwja2DdDHT2TAZFSRR-424">
          <mxGeometry width="50" height="50" relative="1" as="geometry">
            <mxPoint x="759" y="1399" as="sourcePoint" />
            <mxPoint x="759" y="1359" as="targetPoint" />
          </mxGeometry>
        </mxCell>
        <mxCell id="6vAwja2DdDHT2TAZFSRR-426" value="" style="endArrow=none;html=1;fillColor=none;" edge="1" parent="1">
          <mxGeometry width="50" height="50" relative="1" as="geometry">
            <mxPoint x="719" y="1399" as="sourcePoint" />
            <mxPoint x="719" y="1359" as="targetPoint" />
          </mxGeometry>
        </mxCell>
        <mxCell id="6vAwja2DdDHT2TAZFSRR-427" value="" style="endArrow=none;html=1;fillColor=none;" edge="1" parent="1">
          <mxGeometry width="50" height="50" relative="1" as="geometry">
            <mxPoint x="739" y="1399" as="sourcePoint" />
            <mxPoint x="739" y="1359" as="targetPoint" />
          </mxGeometry>
        </mxCell>
        <mxCell id="6vAwja2DdDHT2TAZFSRR-428" value="" style="endArrow=none;html=1;fillColor=none;" edge="1" parent="1">
          <mxGeometry width="50" height="50" relative="1" as="geometry">
            <mxPoint x="759" y="1399" as="sourcePoint" />
            <mxPoint x="759" y="1359" as="targetPoint" />
          </mxGeometry>
        </mxCell>
        <mxCell id="6vAwja2DdDHT2TAZFSRR-429" value="" style="endArrow=none;html=1;fillColor=none;" edge="1" parent="1">
          <mxGeometry width="50" height="50" relative="1" as="geometry">
            <mxPoint x="799" y="1399" as="sourcePoint" />
            <mxPoint x="799" y="1359" as="targetPoint" />
          </mxGeometry>
        </mxCell>
        <mxCell id="6vAwja2DdDHT2TAZFSRR-430" value="" style="endArrow=none;html=1;fillColor=none;" edge="1" parent="1" target="6vAwja2DdDHT2TAZFSRR-424">
          <mxGeometry width="50" height="50" relative="1" as="geometry">
            <mxPoint x="759" y="1399" as="sourcePoint" />
            <mxPoint x="759" y="1359" as="targetPoint" />
          </mxGeometry>
        </mxCell>
        <mxCell id="6vAwja2DdDHT2TAZFSRR-431" value="" style="endArrow=none;html=1;fillColor=none;" edge="1" parent="1">
          <mxGeometry width="50" height="50" relative="1" as="geometry">
            <mxPoint x="779" y="1399" as="sourcePoint" />
            <mxPoint x="779" y="1359" as="targetPoint" />
          </mxGeometry>
        </mxCell>
        <mxCell id="6vAwja2DdDHT2TAZFSRR-432" value="" style="endArrow=classic;html=1;strokeColor=#FF4529;fillColor=#61FF05;exitX=0.091;exitY=1;exitDx=0;exitDy=0;exitPerimeter=0;" edge="1" parent="1">
          <mxGeometry width="50" height="50" relative="1" as="geometry">
            <mxPoint x="320.02" y="1159" as="sourcePoint" />
            <mxPoint x="160" y="1359" as="targetPoint" />
            <Array as="points">
              <mxPoint x="320" y="1279" />
              <mxPoint x="160" y="1279" />
            </Array>
          </mxGeometry>
        </mxCell>
        <mxCell id="6vAwja2DdDHT2TAZFSRR-433" value="Sumamos los 16 bits de la instrucción con lo que hay en el acumulador y llevamos a QR una copia de la instrucción" style="text;html=1;strokeColor=none;fillColor=none;align=center;verticalAlign=middle;whiteSpace=wrap;rounded=0;" vertex="1" parent="1">
          <mxGeometry x="590" y="90" width="160" height="80" as="geometry" />
        </mxCell>
        <mxCell id="6vAwja2DdDHT2TAZFSRR-434" value="Subimos el resultado al GPR y rotamos a la izquierda el QR para llevar los 5 bits mas significativos que representan la instrucción al ACC" style="text;html=1;strokeColor=none;fillColor=none;align=center;verticalAlign=middle;whiteSpace=wrap;rounded=0;" vertex="1" parent="1">
          <mxGeometry x="520" y="480" width="210" height="80" as="geometry" />
        </mxCell>
        <mxCell id="6vAwja2DdDHT2TAZFSRR-435" value="Una vez tenemos los bits mas significativos en el ACC simplemente sumamos el resultado de la suma anterior" style="text;html=1;strokeColor=none;fillColor=none;align=center;verticalAlign=middle;whiteSpace=wrap;rounded=0;" vertex="1" parent="1">
          <mxGeometry x="480" y="840" width="240" height="80" as="geometry" />
        </mxCell>
        <mxCell id="6vAwja2DdDHT2TAZFSRR-436" value="Resultado final" style="text;html=1;strokeColor=none;fillColor=none;align=center;verticalAlign=middle;whiteSpace=wrap;rounded=0;" vertex="1" parent="1">
          <mxGeometry x="470" y="1210" width="140" height="20" as="geometry" />
        </mxCell>
      </root>
    </mxGraphModel>
  </diagram>
</mxfile>
